<svg id="Grupo_3484" data-name="Grupo 3484" xmlns="http://www.w3.org/2000/svg" width="41.618" height="56.401" viewBox="0 0 41.618 56.401">
  <path id="Caminho_16183" data-name="Caminho 16183" d="M257.264,277.241s-2.537,4.383.674,12.091,4.446,10.021,6.09,10.622.46,7.127,3.561,9.638,4.368,2.259,4.368,2.259-5.556-25.665-7.929-30.528S259.654,272.584,257.264,277.241Z" transform="translate(-245.568 -266.575)" fill="#0d4ca3"/>
  <path id="Caminho_16184" data-name="Caminho 16184" d="M258.039,270.575c-2.981,1.524-3.158,5.827-1.987,7.238a4.713,4.713,0,0,0,5.137,1.455l2.708,8.187s7.391,1.679,9.922-2.666C272.585,275.716,266.879,266.058,258.039,270.575Z" transform="translate(-246.033 -269.427)" fill="#1862c5"/>
  <path id="Caminho_16185" data-name="Caminho 16185" d="M262.624,287.237c-.055.97.48,3.665.631,9.441.126,4.757-.345,12.512,1.292,15.249.6,1,2.259.67,3.152.625.982,2.14,2.524,1.8,4.012,1.784a4.277,4.277,0,0,0,3.614,2.608l-3.417-29.019Z" transform="translate(-242.421 -260.543)" fill="#1862c5"/>
  <g id="Grupo_3058" data-name="Grupo 3058" transform="translate(14.085 9.306)">
    <path id="Caminho_16186" data-name="Caminho 16186" d="M259.448,286.383c-.033,2.008,1.56.842,1.56.842s-.181,2.744.682,3.711,1.169,0,1.169,0-.4,3,.7,3.6a1.321,1.321,0,0,0,1.772-.5s-.147,3.077,1.362,4.237a3.917,3.917,0,0,0,3.082.782,2.519,2.519,0,0,0,2.5,2.541,12.044,12.044,0,0,0,2.424-.024c-.76-6.192-2.807-21.812-4.441-24.615-2.047-3.509-11.378,1.066-11.378,1.066,0,.069-.01.16-.015.235a4.562,4.562,0,0,1,1.144-.384S259.479,284.374,259.448,286.383Z" transform="translate(-258.378 -275.636)" fill="#1862c5"/>
    <path id="Caminho_16187" data-name="Caminho 16187" d="M261.533,297.752c2.677,3.107,13.86,8.593,13.86,8.593s-.336-3.952-.528-5.516a12.051,12.051,0,0,1-2.424.024,2.519,2.519,0,0,1-2.5-2.541,3.917,3.917,0,0,1-3.082-.782c-1.509-1.16-1.363-4.237-1.363-4.237a1.321,1.321,0,0,1-1.772.5c-1.1-.6-.7-3.6-.7-3.6s-.306.968-1.169,0-.682-3.711-.682-3.711-1.593,1.166-1.56-.842.564-8.506.564-8.506a4.559,4.559,0,0,0-1.144.384C258.787,281.3,257.182,292.7,261.533,297.752Z" transform="translate(-258.541 -274.89)" fill="#0e5aad"/>
  </g>
  <path id="Caminho_16188" data-name="Caminho 16188" d="M258.868,278.354s.811.77,2.822-.58a7.681,7.681,0,0,0,2.163-2.326s0,3.246-2.163,4.657a3.13,3.13,0,0,1-2.822.6Z" transform="translate(-244.293 -266.423)" fill="#0e5aad"/>
  <path id="Caminho_16189" data-name="Caminho 16189" d="M255.94,278.465s.285,1.721,2.845,1.3,2.687-2.068,2.687-2.068l-.564-1.706Z" transform="translate(-245.754 -266.151)" fill="#373738"/>
  <path id="Caminho_16190" data-name="Caminho 16190" d="M257.249,273.027s.22,3.11,2.176,3.777l1.956.668a38.383,38.383,0,0,0-3.462,2.639c-.836.836-1.338,3.716-1.338,3.716s-2.008-3.536-1.506-6.89S257.249,273.027,257.249,273.027Z" transform="translate(-246.226 -267.631)" fill="#444446"/>
  <path id="Caminho_16191" data-name="Caminho 16191" d="M265.367,280.466s-2.539,4.383.674,12.093,4.446,10.02,6.088,10.621.462,7.129,3.563,9.637,4.368,2.259,4.368,2.259-5.556-25.663-7.93-30.527S267.758,275.809,265.367,280.466Z" transform="translate(-241.526 -264.966)" fill="#0d4ca3"/>
  <path id="Caminho_16192" data-name="Caminho 16192" d="M289.543,310.677l-40.4-23.324v-3.264l41.618,24.028Z" transform="translate(-249.144 -262.113)" fill="#ffb01f"/>
  <path id="Caminho_16193" data-name="Caminho 16193" d="M260.66,289.748c-.941-.649-2.248,1.069-2.425,1.841s1.129-.169,1.129-.169-.334.8.1,1.048c.387.222.868-.544.868-.544s-.115,1.091.429,1.088c.444,0,.7-.667,1.13-1a1.7,1.7,0,0,1,.731-.292s.315-1.38-.934-1.541C261.414,289.565,261.165,289.755,260.66,289.748Z" transform="translate(-244.618 -259.362)" fill="#444446"/>
  <path id="Caminho_16194" data-name="Caminho 16194" d="M258.982,292.158a1.044,1.044,0,0,0,.973,1.066,3.382,3.382,0,0,0,.74-.162,6.185,6.185,0,0,1-1.211-.832C259.505,291.681,258.982,291.4,258.982,292.158Z" transform="translate(-244.236 -258.32)" fill="#444446"/>
  <path id="Caminho_16195" data-name="Caminho 16195" d="M265.622,292.637c-.941-.649-2.25,1.069-2.427,1.841s1.129-.171,1.129-.171-.334.8.1,1.049c.387.22.868-.544.868-.544s-.115,1.091.43,1.088c.444,0,.7-.667,1.129-1a1.705,1.705,0,0,1,.733-.292s.313-1.382-.935-1.541C266.375,292.452,266.126,292.644,265.622,292.637Z" transform="translate(-242.143 -257.92)" fill="#444446"/>
  <path id="Caminho_16196" data-name="Caminho 16196" d="M263.943,295.045a1.044,1.044,0,0,0,.973,1.067,3.387,3.387,0,0,0,.74-.162,6.184,6.184,0,0,1-1.211-.832C264.466,294.57,263.943,294.285,263.943,295.045Z" transform="translate(-241.762 -256.879)" fill="#444446"/>
  <path id="Caminho_16197" data-name="Caminho 16197" d="M259.453,276.481c.651.379.9,1.99.9,1.99s1.485-.773.115-2.652c-.845-1.16-2.52-.133-2.52-.133S258.774,276.084,259.453,276.481Z" transform="translate(-244.751 -266.513)" fill="#ffb01f"/>
  <path id="Caminho_16198" data-name="Caminho 16198" d="M261.517,272.133a1.254,1.254,0,0,0-2.01-.027,2.085,2.085,0,0,0-.181,1.592c.234,1.129,1.148,1.782,1.959,1.208A2.094,2.094,0,0,0,261.517,272.133Z" transform="translate(-244.1 -268.345)" fill="#ffb01f"/>
  <path id="Caminho_16199" data-name="Caminho 16199" d="M260.992,272.446a.636.636,0,0,0-1.022-.013,1.063,1.063,0,0,0-.093.809c.118.576.585.908,1,.616A1.064,1.064,0,0,0,260.992,272.446Z" transform="translate(-243.808 -268.057)" fill="#444446"/>
  <path id="Caminho_16200" data-name="Caminho 16200" d="M260.148,273.256a.464.464,0,0,0,.511-.226,3.667,3.667,0,0,0,.157-.46s.189.722-.219.88S260.148,273.256,260.148,273.256Z" transform="translate(-243.655 -267.859)" fill="#894747"/>
  <path id="Caminho_16201" data-name="Caminho 16201" d="M260.659,272.673a.258.258,0,1,1-.255-.292A.276.276,0,0,1,260.659,272.673Z" transform="translate(-243.655 -267.953)" fill="#fff"/>
  <path id="Caminho_16202" data-name="Caminho 16202" d="M265.333,295.9c-.229.376-1.025,8.47-.637,10.444a2.063,2.063,0,0,0,2.02,1.893Z" transform="translate(-241.438 -256.223)" fill="#0e5aad"/>
  <path id="Caminho_16203" data-name="Caminho 16203" d="M267.746,297.375a78.207,78.207,0,0,0-.294,7.99c.252,3.3,1.869,3.913,1.869,3.913Z" transform="translate(-240.031 -255.485)" fill="#0e5aad"/>
  <path id="Caminho_16204" data-name="Caminho 16204" d="M266.214,279.708a14.708,14.708,0,0,0,0,8.6,93.954,93.954,0,0,0,3.059,9.368A2.044,2.044,0,0,0,271.3,299.2s-1.368-3.548-2.984-7.98A49.317,49.317,0,0,1,266.214,279.708Z" transform="translate(-240.936 -264.298)" fill="#1862c5"/>
  <path id="Caminho_16205" data-name="Caminho 16205" d="M268.686,284.088a82.23,82.23,0,0,0,2.287,13.295c1.276,4.218,3.626,5.5,3.626,5.5s-1.9-4.222-2.887-7.394C270.4,291.264,268.686,284.088,268.686,284.088Z" transform="translate(-239.396 -262.113)" fill="#1862c5"/>
</svg>
