<svg xmlns="http://www.w3.org/2000/svg" width="49.876" height="47.213" viewBox="0 0 49.876 47.213">
  <g id="Grupo_3485" data-name="Grupo 3485" transform="translate(-1186.933 -3163.757)">
    <g id="Grupo_3449" data-name="Grupo 3449" transform="translate(1186.933 3163.757)">
      <path id="Caminho_16519" data-name="Caminho 16519" d="M92.692,288.841s-.439,5.193-1.614,5.862-3.51,4.273-.394,5.156c1.244.354.826.441,4.788-2.17,1.25-.825,1.982-2.64,2.4-4.315a20.878,20.878,0,0,0,.559-3.526Z" transform="translate(-79.334 -257.359)" fill="#e5e5e5"/>
      <g id="Grupo_3445" data-name="Grupo 3445" transform="translate(42.282 20.053)">
        <path id="Caminho_16520" data-name="Caminho 16520" d="M118.442,282.137c-.056-.061-.1-.124-.162-.182-2.63-2.407-5.709.172-5.983.257,0,0-1.4,3.773-.2,5.547a23.775,23.775,0,0,0,3.566-1.461C118.2,285,118.513,283.2,118.442,282.137Z" transform="translate(-111.613 -280.931)" fill="#e5e5e5"/>
        <path id="Caminho_16521" data-name="Caminho 16521" d="M113.638,288.288c3.706.253,6.946-4.078,4.654-6.522.071,1.059-.241,2.867-2.777,4.161a23.779,23.779,0,0,1-3.566,1.461A2.074,2.074,0,0,0,113.638,288.288Z" transform="translate(-111.464 -280.56)" fill="#adadad"/>
      </g>
      <g id="Grupo_3446" data-name="Grupo 3446" transform="translate(7.273 12.181)">
        <path id="Caminho_16522" data-name="Caminho 16522" d="M125.132,284.015c-2.113-4.008-9.131-11.2-19.036-7.512-11.536,4.294-14.756,8.87-14.756,8.87s-8.285,8.658-.877,14.12l7.238-2.988s9.025.806,12.61-1.146,6.335-2.641,8.57-1.009c.99.724,1.14,2.516.368,4.481a17.935,17.935,0,0,0,4.479-3.375C126.832,292.212,127.244,288.022,125.132,284.015Z" transform="translate(-87.384 -275.483)" fill="#e5e5e5"/>
        <path id="Caminho_16523" data-name="Caminho 16523" d="M117.932,288.823c-2.235-1.633-4.985-.945-8.57,1.009s-12.61,1.146-12.61,1.146l-7.238,2.988c.143.105.282.212.436.316,2.761,1.835,10.349,2.344,13.113,2.091,1.9-.173,9.021.285,15.237-3.069C119.073,291.338,118.922,289.546,117.932,288.823Z" transform="translate(-86.435 -269.955)" fill="#bfbfbf"/>
      </g>
      <path id="Caminho_16524" data-name="Caminho 16524" d="M84.841,284.872s-.105,8.433,4.648,10.83,8.866-2.208,8.866-2.208l-.045-9.711Z" transform="translate(-81.242 -259.609)" fill="#e5e5e5"/>
      <g id="Grupo_3447" data-name="Grupo 3447" transform="translate(5.184 0)">
        <path id="Caminho_16525" data-name="Caminho 16525" d="M89.576,267.056c-1.852-.087-3.638,1.678-3.638,6.9v11.931h1.285c.228-1,2.407-10.609,2.767-14.433A10.182,10.182,0,0,0,89.576,267.056Z" transform="translate(-85.938 -267.053)" fill="#e5e5e5"/>
        <path id="Caminho_16526" data-name="Caminho 16526" d="M91.611,273.959c0-4.271.533-6.028-1.579-6.742a3.13,3.13,0,0,0-.851-.162,10.182,10.182,0,0,1,.413,4.4c-.36,3.825-2.539,13.434-2.767,14.433h1.779S91.617,278.23,91.611,273.959Z" transform="translate(-85.542 -267.052)" fill="#bfbfbf"/>
      </g>
      <path id="Caminho_16527" data-name="Caminho 16527" d="M89.228,286.571s1.626-9.492,4.511-13.145a14.514,14.514,0,0,1,8.167-5.174c1.056-.062,3.169,4.589,0,8.074S90.52,288.591,90.52,288.591Z" transform="translate(-79.29 -266.52)" fill="#e5e5e5"/>
      <g id="Grupo_3448" data-name="Grupo 3448" transform="translate(0.122 16.391)">
        <path id="Caminho_16528" data-name="Caminho 16528" d="M97.7,284.928a8.061,8.061,0,0,0-1.4-3.3c-1.409-1.7-1.7-2.793-4.851-3.144-5.267-.587-6.1,2.021-7.4,5.034a27.2,27.2,0,0,0-1.568,6.362,7.2,7.2,0,0,0,.16,2.612,3.5,3.5,0,0,0,.415.848,4.087,4.087,0,0,1,2.053.241c2.322.852,4.745,1.419,7.144-.09a13.539,13.539,0,0,0,5.106-6.179A6.513,6.513,0,0,0,97.7,284.928Z" transform="translate(-82.435 -278.397)" fill="#e5e5e5"/>
        <path id="Caminho_16529" data-name="Caminho 16529" d="M97.509,282.917a6.513,6.513,0,0,1-.342,2.381,13.539,13.539,0,0,1-5.106,6.179c-2.4,1.508-4.822.942-7.144.09a4.086,4.086,0,0,0-2.053-.241c1.753,2.685,8.655,2.871,11.859.136A8.566,8.566,0,0,0,97.509,282.917Z" transform="translate(-82.245 -276.385)" fill="#adadad"/>
      </g>
      <path id="Caminho_16530" data-name="Caminho 16530" d="M92.153,289.794s2.41,2.352,4.089,2.039c2.825-.526,2.99-4.931,2.99-4.931s2.44,5.778-3.94,8.183c-6.579,2.478-9.552-3.659-9.552-3.659Z" transform="translate(-80.843 -258.222)" fill="#adadad"/>
      <path id="Caminho_16531" data-name="Caminho 16531" d="M89.13,292.559a16.849,16.849,0,0,0,6.213,1.935,29.953,29.953,0,0,0,3.419.215l.9-1.49s-1.3-.254-1.719-.328c-1.089-.191-4.919-1.308-4.919-1.308Z" transform="translate(-79.334 -256.138)" fill="#adadad"/>
      <path id="Caminho_16532" data-name="Caminho 16532" d="M99.16,295.692s5.327-.194,6.166-.376,1.1-.227,1.1-.227l5.973-3.309v-1.6a3.025,3.025,0,0,0-2.965-.643c-2.013.738-4.124,2.732-5.931,3.484a13.458,13.458,0,0,1-4.04,1.176Z" transform="translate(-74.871 -257.121)" fill="#adadad"/>
      <path id="Caminho_16533" data-name="Caminho 16533" d="M106.536,292.167c-2.946,1.73-3.864,5.914-2.94,6.686,2.228,1.861,8.969-3.54,11.259-5.878a11.363,11.363,0,0,0,2.656-5.612Z" transform="translate(-73.051 -258.016)" fill="#e5e5e5"/>
      <path id="Caminho_16534" data-name="Caminho 16534" d="M97.752,288.333l-.926,6.7c-.221,1.589-.675,3.987-1.448,4.426-1.173.669-3.508,4.273-.394,5.157,1.244.353.827.439,4.789-2.172,1.784-1.176,2.751-5.812,3.188-8.668.207-1.353,1.024-4.71,1.024-4.71Z" transform="translate(-77.421 -257.585)" fill="#e5e5e5"/>
      <path id="Caminho_16535" data-name="Caminho 16535" d="M94.429,297.831s-1.354,1.7-.452,2.128l.9.432a1.575,1.575,0,0,1-.449-1.28Z" transform="translate(-77.315 -253.359)" fill="#adadad"/>
      <path id="Caminho_16536" data-name="Caminho 16536" d="M95.04,298.462c0,.3-.1,1.365.613,1.386a3.5,3.5,0,0,0,1.773-.824S95.225,299.033,95.04,298.462Z" transform="translate(-76.707 -253.078)" fill="#adadad"/>
      <path id="Caminho_16537" data-name="Caminho 16537" d="M104.291,293.808s-1.194,1.459-.452,2.13a1.625,1.625,0,0,0,.9.431,1.575,1.575,0,0,1-.449-1.28Z" transform="translate(-72.898 -255.149)" fill="#adadad"/>
      <path id="Caminho_16538" data-name="Caminho 16538" d="M104.923,294.439c0,.3-.1,1.365.613,1.386a3.5,3.5,0,0,0,1.773-.824S105.107,295.01,104.923,294.439Z" transform="translate(-72.31 -254.868)" fill="#adadad"/>
      <path id="Caminho_16539" data-name="Caminho 16539" d="M90.463,294.82s-1.144,1.409-.452,2.128a2.051,2.051,0,0,0,.9.431,1.572,1.572,0,0,1-.449-1.28Z" transform="translate(-79.041 -254.698)" fill="#adadad"/>
      <path id="Caminho_16540" data-name="Caminho 16540" d="M90.89,295.45c0,.3-.1,1.367.613,1.387.773.022,1.773-1.2,1.773-1.2S91.076,296.022,90.89,295.45Z" transform="translate(-78.553 -254.418)" fill="#adadad"/>
      <path id="Caminho_16541" data-name="Caminho 16541" d="M90.885,284.128s5.222-7.761,7.19-11,2.893-3.307,2.893-3.307,1.795,1.669-.472,4.771S94.9,282.215,90.885,284.128Z" transform="translate(-78.553 -265.824)" fill="#adadad"/>
      <path id="Caminho_16542" data-name="Caminho 16542" d="M87.722,285.647s-.007-2,1.269-2.4a1.837,1.837,0,0,1,1.724.25s.368,2.225-1.146,2.718A1.9,1.9,0,0,1,87.722,285.647Z" transform="translate(-79.96 -259.891)" fill="#bfbfbf"/>
      <path id="Caminho_16543" data-name="Caminho 16543" d="M88.874,283.492c-1.027.384-.881,1.79-.881,1.79a1.711,1.711,0,0,0,1.306.392c.9-.215,1-1.812,1-1.812A1.233,1.233,0,0,0,88.874,283.492Z" transform="translate(-79.843 -259.779)" fill="#444446"/>
      <path id="Caminho_16544" data-name="Caminho 16544" d="M89.261,284.277a.495.495,0,1,1-.494-.494A.495.495,0,0,1,89.261,284.277Z" transform="translate(-79.716 -259.609)" fill="#fff"/>
      <path id="Caminho_16545" data-name="Caminho 16545" d="M82.473,286.991a2.444,2.444,0,0,0,.618,2.521c1.355,1.238,2.14-1.058,2.14-1.058a3.283,3.283,0,0,1-2.14-.37C82.812,287.917,82.473,286.991,82.473,286.991Z" transform="translate(-82.35 -258.182)" fill="#8790a0"/>
    </g>
  </g>
</svg>
