<svg xmlns="http://www.w3.org/2000/svg" width="50" height="70" viewBox="0 0 72.465 103.746">
  <g id="Grupo_3024" data-name="Grupo 3024" transform="translate(-2532 -2872)">
    <g id="Grupo_2984" data-name="Grupo 2984" transform="translate(2532 2872)">
      <g id="Grupo_2978" data-name="Grupo 2978" transform="translate(5.494 0)">
        <path id="Caminho_15880" data-name="Caminho 15880" d="M184.627,254.308c.876.475,3.116,3.693,4.139,5.535a14.713,14.713,0,0,1,1.656,5.064,24.166,24.166,0,0,0,2.112-1.289s-6.014-11.383-8.444-10.14a2.954,2.954,0,0,0-.8.6A2.036,2.036,0,0,1,184.627,254.308Z" transform="translate(-182.622 -253.382)" fill="#adadad"/>
        <path id="Caminho_15881" data-name="Caminho 15881" d="M183.593,259.017a55.5,55.5,0,0,0,1.608,6.052c.756,1.7,3.58.566,5.588-.526a14.713,14.713,0,0,0-1.656-5.064c-1.024-1.842-3.264-5.059-4.139-5.535a2.036,2.036,0,0,0-1.336-.234C182.724,254.679,182.828,256.215,183.593,259.017Z" transform="translate(-182.988 -253.018)" fill="#8e8e8e"/>
      </g>
      <path id="Caminho_15882" data-name="Caminho 15882" d="M243.689,304.036c-6.2-16.117-12.252-17.846-17.077-21.7-6.627-5.3-5.256-12.809-15.416-20.166-5.466-3.958-26.928,9.209-26.928,9.209s.307,6.465-.873,20.292c-.626,7.33,2.744,20.234,4.3,22.764s5.946,6.563,11.693,11.332c2.994,2.483,14.209,10.176,24.157,10.784,4.849.3,16.259-5.742,20.82-8.378S247.417,313.73,243.689,304.036Z" transform="translate(-177.095 -243.643)" fill="#adadad"/>
      <path id="Caminho_15883" data-name="Caminho 15883" d="M198.353,256.851c-7.036-2.417-11.71,4.166-13.707,5.891-3.009,2.6-4.141,7.436-4.141,10.41,0,5.641,1.842,8.557,5.493,11.861s10.415,6.132,13.515,7.783,10.9-.991,15.093-6.609,2.032-14.578,0-17.844C209.672,260.411,202.711,258.35,198.353,256.851Z" transform="translate(-180.504 -249.819)" fill="#adadad"/>
      <g id="Grupo_2979" data-name="Grupo 2979" transform="translate(2.776 48.76)">
        <path id="Caminho_15884" data-name="Caminho 15884" d="M188.376,313.19c1.585-.73,2.762-4.084,2.9-6.258s1.028-9.006,1.028-9.006a14.009,14.009,0,0,1,1.9,1.691c.789-4.517,1.322-8.332,1.322-8.332l-10.249-15.852s.579,14.275.579,19.244c0,3.312-.657,12.626-.657,12.626s-4.814,2.247-3.062,5.324C184.5,313.119,187.465,313.608,188.376,313.19Z" transform="translate(-181.76 -275.434)" fill="#adadad"/>
        <path id="Caminho_15885" data-name="Caminho 15885" d="M191.158,299.744A89.528,89.528,0,0,0,194,287.3a14.006,14.006,0,0,0-1.9-1.692s-.887,6.833-1.028,9.006-1.815,5.291-3.476,5.82c-1.866.595-3.3.367-5.661-.124C185.073,304.469,190.716,300.965,191.158,299.744Z" transform="translate(-181.549 -263.114)" fill="#8e8e8e"/>
      </g>
      <path id="Caminho_15886" data-name="Caminho 15886" d="M185.049,278.843a46.36,46.36,0,0,0,.942,9.935c1.063,4.555,3.463,10.768,7.233,12.422s1.994-1.3,1.994-1.3,3.08-.219,0-2.47c-4.727-3.458-7.288-9.687-7.83-13.616S185.049,278.843,185.049,278.843Z" transform="translate(-175.004 -222.545)" fill="#8e8e8e"/>
      <g id="Grupo_2980" data-name="Grupo 2980" transform="translate(13.205 54.921)">
        <path id="Caminho_15887" data-name="Caminho 15887" d="M190.861,316.215a4.69,4.69,0,0,0,4.049-3.266c.865-2.174,2.16-12.341,2.472-15.834A13.418,13.418,0,0,1,199.04,292l-8.913-13.784s.579,14.275.579,19.242c0,3.312-.657,12.628-.657,12.628s-5.939,3.016-2.5,6.165A24.6,24.6,0,0,0,190.861,316.215Z" transform="translate(-186.476 -278.22)" fill="#adadad"/>
        <path id="Caminho_15888" data-name="Caminho 15888" d="M195.628,308.838c2.054-5.667,4.161-20.781,4.161-20.781v-4.873c-1.968,1.831-2.824,5.986-2.994,7.918-.312,3.494-1.608,13.661-2.472,15.834a4.69,4.69,0,0,1-4.049,3.266,24.631,24.631,0,0,1-3.315.04,5.915,5.915,0,0,0,.542.456C190.9,313.148,195.186,310.056,195.628,308.838Z" transform="translate(-185.89 -272.208)" fill="#8e8e8e"/>
      </g>
      <path id="Caminho_15889" data-name="Caminho 15889" d="M190,264.1s7.12-6.178,10.079-5.638c4.787.876,0,13.227,0,13.227Z" transform="translate(-169 -247.275)" fill="#adadad"/>
      <path id="Caminho_15890" data-name="Caminho 15890" d="M182.988,277.4s.67,5.709,9.568,8.27a14.669,14.669,0,0,0,8.436-.254c6.28,3.438,10.165,1.4,13.344-2.151,3.885-4.338,4.159-9.791,1.614-15.476a23.414,23.414,0,0,0-3.434-5.172s.966,11.489-3.693,15.836-8.084,5.413-13.077,4.734c-9.15-1.243-10.536-6.527-10.536-6.527S184.372,278.214,182.988,277.4Z" transform="translate(-177.496 -242.203)" fill="#8e8e8e"/>
      <path id="Caminho_15891" data-name="Caminho 15891" d="M191.315,264.442a18.654,18.654,0,0,1,3.715-3.916c1.1-.849,2.178-1.924,3.425-1.5,1.521.517,1.55,2.667.88,5.019-.838,2.934-1.656,5.95-1.656,5.95A26.214,26.214,0,0,0,191.315,264.442Z" transform="translate(-167.41 -246.663)" fill="#8e8e8e"/>
      <path id="Caminho_15892" data-name="Caminho 15892" d="M192.634,271.377c-1.8.52-3.531.5-4.741-.909a3.264,3.264,0,0,1-.655-1.033,5.646,5.646,0,0,1,.352-4.155.078.078,0,0,0-.122-.1,2.75,2.75,0,0,0-.6.8.223.223,0,0,0-.376.146c-.009.1-.022.19-.035.287a.19.19,0,0,0-.126.146,4.691,4.691,0,0,1-.323,1.322,1.74,1.74,0,0,1-1.634.9c-1.128-.018-1.773-.944-2.025-2-.2-.831-.785-.666-.542.608a2.8,2.8,0,0,0,2.952,2.419,2.717,2.717,0,0,0,1.464-.654,3.347,3.347,0,0,0,1.627,3.014,4.493,4.493,0,0,0,5.389,0C193.556,271.906,193.375,271.165,192.634,271.377Z" transform="translate(-179 -239.112)" fill="#8e8e8e"/>
      <path id="Caminho_15893" data-name="Caminho 15893" d="M183.429,264.975s.617-.982,2.26-.1c1.663.891,1.928,1.813,1.928,1.813a3.386,3.386,0,0,0-1.928.332c-.593.354-.559.774-.918.557a2.738,2.738,0,0,1-1.008-1.355A3.284,3.284,0,0,1,183.429,264.975Z" transform="translate(-176.961 -239.909)" fill="#444446"/>
      <g id="Grupo_2981" data-name="Grupo 2981" transform="translate(13.07 21.967)">
        <path id="Caminho_15894" data-name="Caminho 15894" d="M186.415,266.422s.851-3.248,3.436-3.1c3.166.181,3.41,4.018,3.41,4.018a3.865,3.865,0,0,1-3.834,1.4C186.751,268.246,186.415,266.422,186.415,266.422Z" transform="translate(-186.415 -263.317)" fill="#8e8e8e"/>
        <path id="Caminho_15895" data-name="Caminho 15895" d="M189.038,263.638c-1.537.131-2.238,2.41-2.238,2.41s.486,1.512,2.786,1.563a3.027,3.027,0,0,0,2.311-.9S191.943,263.395,189.038,263.638Z" transform="translate(-185.949 -262.943)" fill="#ffd543"/>
        <path id="Caminho_15896" data-name="Caminho 15896" d="M187.3,264.957a1.2,1.2,0,0,0,1.636.617,2.841,2.841,0,0,0,1.444-1.333,1.477,1.477,0,0,1-1.192,2.085C187.226,266.631,187.3,264.957,187.3,264.957Z" transform="translate(-185.344 -262.197)" fill="#ffb01f"/>
        <path id="Caminho_15897" data-name="Caminho 15897" d="M188.281,263.9a1.629,1.629,0,0,0-.075,2.481C188.564,265.894,188.993,264.517,188.281,263.9Z" transform="translate(-184.896 -262.61)" fill="#444446"/>
        <path id="Caminho_15898" data-name="Caminho 15898" d="M188.475,264.352a.521.521,0,1,1-.52-.522A.521.521,0,0,1,188.475,264.352Z" transform="translate(-185.181 -262.695)" fill="#fff"/>
      </g>
      <g id="Grupo_2982" data-name="Grupo 2982" transform="translate(4.102 16.407)">
        <path id="Caminho_15899" data-name="Caminho 15899" d="M186.766,267.046s.946-4.356-.329-5.6c-1.82-1.773-3.931.672-3.931.672s-.573,2.326.553,3.474S186.766,267.046,186.766,267.046Z" transform="translate(-182.359 -260.802)" fill="#8e8e8e"/>
        <path id="Caminho_15900" data-name="Caminho 15900" d="M185.786,265.781a6.339,6.339,0,0,1-2.019-.586,2.821,2.821,0,0,1-1.095-3.012,2.109,2.109,0,0,1,2.572-.909C186.821,261.982,185.786,265.781,185.786,265.781Z" transform="translate(-182.083 -260.448)" fill="#ffd543"/>
        <path id="Caminho_15901" data-name="Caminho 15901" d="M182.782,262.539a1.079,1.079,0,0,0,1.473.555,2.538,2.538,0,0,0,1.3-1.2,1.329,1.329,0,0,1-1.072,1.875C182.718,264.045,182.782,262.539,182.782,262.539Z" transform="translate(-181.847 -259.475)" fill="#ffb01f"/>
        <path id="Caminho_15902" data-name="Caminho 15902" d="M183.655,261.46a1.631,1.631,0,0,0-.075,2.481C183.938,263.455,184.367,262.075,183.655,261.46Z" transform="translate(-181.529 -260.006)" fill="#444446"/>
        <path id="Caminho_15903" data-name="Caminho 15903" d="M183.853,261.91a.522.522,0,1,1-.522-.52A.521.521,0,0,1,183.853,261.91Z" transform="translate(-181.814 -260.09)" fill="#fff"/>
      </g>
      <path id="Caminho_15904" data-name="Caminho 15904" d="M186.932,264.2s.758-2.591,3.153-2.255,2.357,1.722,2.357,1.722S189.263,262.294,186.932,264.2Z" transform="translate(-172.719 -243.042)" fill="#8e8e8e"/>
      <path id="Caminho_15905" data-name="Caminho 15905" d="M184.62,260a4.588,4.588,0,0,1,.88,2.121,8.054,8.054,0,0,1-.155,2.043,3.3,3.3,0,0,0,1.139-2.53C186.174,259.634,184.62,260,184.62,260Z" transform="translate(-175.519 -245.402)" fill="#8e8e8e"/>
      <path id="Caminho_15906" data-name="Caminho 15906" d="M186.516,262.525s.292-3.352,2.112-3.954a3.547,3.547,0,0,1,2.815,0S187.759,260.041,186.516,262.525Z" transform="translate(-173.222 -247.42)" fill="#8e8e8e"/>
      <path id="Caminho_15907" data-name="Caminho 15907" d="M187.011,262.3a9.44,9.44,0,0,1,3.863-2.835,8.066,8.066,0,0,1,4.551-.073s-2.587.677-5.161,1.647C188.61,261.659,187.011,262.3,187.011,262.3Z" transform="translate(-172.623 -246.467)" fill="#8e8e8e"/>
      <path id="Caminho_15908" data-name="Caminho 15908" d="M188.744,273.38a9.817,9.817,0,0,0,7.14-.553c2.948-1.433,3.394-3.416,3.394-3.416a18.863,18.863,0,0,1-4.219,2.536A19.838,19.838,0,0,1,188.744,273.38Z" transform="translate(-170.524 -233.969)" fill="#8e8e8e"/>
      <path id="Caminho_15909" data-name="Caminho 15909" d="M191.126,275.315a7.789,7.789,0,0,0,7.816,2.191c5.174-1.156,5.2-3.783,5.2-3.783S196.34,277.915,191.126,275.315Z" transform="translate(-167.639 -228.746)" fill="#8e8e8e"/>
      <path id="Caminho_15910" data-name="Caminho 15910" d="M184.716,274.109s-.361,4.593,5.508,6.87c5.636,2.187,7.569-.931,7.569-.931S188.444,280.592,184.716,274.109Z" transform="translate(-175.407 -228.279)" fill="#8e8e8e"/>
      <path id="Caminho_15911" data-name="Caminho 15911" d="M187.844,278.22a7.5,7.5,0,0,0,6.572,2.2c4.155-.621,5.322-2.2,5.322-2.2S192.572,280.115,187.844,278.22Z" transform="translate(-171.614 -223.299)" fill="#8e8e8e"/>
      <path id="Caminho_15912" data-name="Caminho 15912" d="M191.267,280.6s1.371,1.413,4.325.787c2.972-.63,2.972-2.545,2.972-2.545A11.58,11.58,0,0,1,191.267,280.6Z" transform="translate(-167.468 -222.545)" fill="#8e8e8e"/>
      <path id="Caminho_15913" data-name="Caminho 15913" d="M192.3,294.658s.635,2.158,4.5,2.678c1.358.181,3.631-.988,6.09-5.179,2.68-4.564,4.586-7.805,7.728-9.143a6.69,6.69,0,0,1,7.14,1.086s-8.259-.1-10.235,6.222-.529,10.468,1.541,12.124,12.013,2.328,16.36.259a41.52,41.52,0,0,0,8.893-6.43,11.973,11.973,0,0,1-6,11.759c-7.246,4.347-24.022,1.139-28.562-1.15a58.109,58.109,0,0,1-8.438-5.322Z" transform="translate(-167.41 -218.202)" fill="#8e8e8e"/>
      <g id="Grupo_2983" data-name="Grupo 2983" transform="translate(21.64 74.881)">
        <path id="Caminho_15914" data-name="Caminho 15914" d="M200.269,310.692c12.621,3.925,25.791,2.452,32.909-5.411a29.321,29.321,0,0,0,6.578-13.782,20.569,20.569,0,0,0-1.807-4.252,22.592,22.592,0,0,1-9.333,11.635c-7.447,4.834-27.648,2.656-31.326.371-1.771-1.1-4.652-.347-6.35,1.459C190.633,303.282,191.455,307.95,200.269,310.692Z" transform="translate(-189.566 -287.247)" fill="#adadad"/>
        <path id="Caminho_15915" data-name="Caminho 15915" d="M193.182,306.893c7.337,6.55,23.016,9.577,33.893,3.9,13.948-7.275,15.191-15.5,13.406-21.627a29.322,29.322,0,0,1-6.578,13.782c-7.118,7.863-20.288,9.336-32.909,5.411-8.814-2.742-9.636-7.41-9.329-9.979C189.834,300.33,189.376,303.5,193.182,306.893Z" transform="translate(-190.291 -284.918)" fill="#8e8e8e"/>
      </g>
      <path id="Caminho_15916" data-name="Caminho 15916" d="M198.92,288.941a5.889,5.889,0,0,0,2.64,4.192c2.406,1.475,3.182,1.32,3.182,1.32a16.528,16.528,0,0,1-3.416-2.872A26.463,26.463,0,0,0,198.92,288.941Z" transform="translate(-158.199 -210.314)" fill="#8e8e8e"/>
      <path id="Caminho_15917" data-name="Caminho 15917" d="M200.395,289.378a6.146,6.146,0,0,0,3.414,3.848,9.5,9.5,0,0,0,5.9.309,26.61,26.61,0,0,1-5.123-1.552A31.184,31.184,0,0,1,200.395,289.378Z" transform="translate(-156.413 -209.785)" fill="#8e8e8e"/>
      <path id="Caminho_15918" data-name="Caminho 15918" d="M201.914,269.507a7.083,7.083,0,0,1-.763,4.5A38.054,38.054,0,0,1,198.6,277.7a6.535,6.535,0,0,0,3.719-3.478A4.984,4.984,0,0,0,201.914,269.507Z" transform="translate(-158.584 -233.852)" fill="#8e8e8e"/>
      <path id="Caminho_15919" data-name="Caminho 15919" d="M203.141,273.723a11.55,11.55,0,0,1-2.1,3.067,37.542,37.542,0,0,1-3.494,2.406,5.446,5.446,0,0,0,4.389-1.689A4.835,4.835,0,0,0,203.141,273.723Z" transform="translate(-159.857 -228.746)" fill="#8e8e8e"/>
      <path id="Caminho_15920" data-name="Caminho 15920" d="M200.1,281.328s1.588-.467,5.313.723a33.813,33.813,0,0,1,4.657,1.864,6.257,6.257,0,0,0-4.657-3.52C203.147,279.915,200.1,281.328,200.1,281.328Z" transform="translate(-156.772 -220.786)" fill="#8e8e8e"/>
      <path id="Caminho_15921" data-name="Caminho 15921" d="M203.73,279.467a22.757,22.757,0,0,1,2.872,2.193,12.923,12.923,0,0,1,1.983,3.286s.732-1.391-.588-3.62S203.73,279.467,203.73,279.467Z" transform="translate(-152.374 -221.817)" fill="#8e8e8e"/>
    </g>
  </g>
</svg>
