<svg xmlns="http://www.w3.org/2000/svg" width="87.60" height="65.22" viewBox="0 0 115.935 86.321">
  <g id="Grupo_3025" data-name="Grupo 3025" transform="translate(-2522 -2879)">
    <g id="Grupo_2976" data-name="Grupo 2976" transform="translate(2522 2879)">
      <g id="Grupo_2966" data-name="Grupo 2966" transform="translate(92.436 9.776)">
        <path id="Caminho_15843" data-name="Caminho 15843" d="M156.908,242.713a38.9,38.9,0,0,0,5.049,12.22,6.661,6.661,0,0,0,3.395-1.247,71.762,71.762,0,0,0-7.159-21.362c-5.875-11.382-16.339-11.933-16.339-11.933l3.146,14.5a81.922,81.922,0,0,0,3,10.388c.229-7.839,1.462-16.617,1.462-16.617S154.339,231.991,156.908,242.713Z" transform="translate(-141.854 -220.392)" fill="#ffb01f"/>
        <path id="Caminho_15844" data-name="Caminho 15844" d="M150.761,249.885a16.2,16.2,0,0,0,7.794.464c-1.818-2.771-2.841-8.756-4.13-14.139-2.572-10.724-8.37-12.128-8.37-12.128s-1.233,8.778-1.462,16.617C146.158,244.912,148.27,249,150.761,249.885Z" transform="translate(-138.452 -215.808)" fill="#d88600"/>
      </g>
      <g id="Grupo_2967" data-name="Grupo 2967" transform="translate(13.493 0)">
        <path id="Caminho_15845" data-name="Caminho 15845" d="M114.374,234.082l4.711-1.056s-7.816-13.8-9.848-16.245c-1.206-1.453-2.072-.657-2.475,1.222a5.834,5.834,0,0,1,1.518,2.727C108.953,223.037,112.764,230.831,114.374,234.082Z" transform="translate(-106.503 -216.032)" fill="#ffb01f"/>
        <path id="Caminho_15846" data-name="Caminho 15846" d="M106.762,221.936c.491,4.776,3.585,11.989,3.585,11.989l4.17-.935c-1.61-3.251-5.422-11.045-6.094-13.352a5.835,5.835,0,0,0-1.518-2.727A16.919,16.919,0,0,0,106.762,221.936Z" transform="translate(-106.646 -214.94)" fill="#d88600"/>
      </g>
      <g id="Grupo_2968" data-name="Grupo 2968" transform="translate(71.621 43.071)">
        <path id="Caminho_15847" data-name="Caminho 15847" d="M139.435,247.609c2.312-2.1,3.029-5.289,3.265-7.917a10.736,10.736,0,0,1-3.7-4.451,10.57,10.57,0,0,1-3.345,3.375,13.443,13.443,0,0,1-.484,5.211c-2.314,2.256-3.065,4.514-2.33,6.023A8.218,8.218,0,0,0,139.435,247.609Z" transform="translate(-132.571 -235.241)" fill="#ffd9c0"/>
        <path id="Caminho_15848" data-name="Caminho 15848" d="M135.022,249.02c3.825.839,7.632-2.664,8.238-7.9.123-1.079.209-2.206.285-3.339a7.418,7.418,0,0,1-1-.552c-.235,2.628-.953,5.816-3.265,7.917a8.217,8.217,0,0,1-6.592,2.24A3.167,3.167,0,0,0,135.022,249.02Z" transform="translate(-132.42 -232.775)" fill="#f7c5a9"/>
      </g>
      <path id="Caminho_15849" data-name="Caminho 15849" d="M118.279,250.351a10.175,10.175,0,0,1,2.256,1.823q.081-.787.148-1.552a138.751,138.751,0,0,1,2.2-14.368l-11.265,4.22v10.592C113.582,250.062,116.291,249.149,118.279,250.351Z" transform="translate(-86.975 -190.912)" fill="#ffb01f"/>
      <g id="Grupo_2969" data-name="Grupo 2969" transform="translate(20.667 58.878)">
        <path id="Caminho_15850" data-name="Caminho 15850" d="M119.456,249.917c.173-1.408.527-4.375.857-7.144-1.971-1.058-4.581-.184-6.489.794v6.554s-6.727,5.67-2.686,8.424c.043.029.085.047.13.076a9.827,9.827,0,0,0,3.89-1C118,256.07,119.089,252.928,119.456,249.917Z" transform="translate(-109.846 -242.291)" fill="#ffd9c0"/>
        <path id="Caminho_15851" data-name="Caminho 15851" d="M120.63,253.32a77.339,77.339,0,0,0,1.321-8.913,10.175,10.175,0,0,0-2.256-1.823c-.056-.034-.114-.047-.17-.078-.33,2.769-.684,5.736-.857,7.144-.368,3.011-1.453,6.153-4.3,7.709a9.828,9.828,0,0,1-3.89,1C115.1,261.365,119.577,257.006,120.63,253.32Z" transform="translate(-109.058 -242.024)" fill="#f7c5a9"/>
      </g>
      <g id="Grupo_2970" data-name="Grupo 2970" transform="translate(0.322 15.29)">
        <path id="Caminho_15852" data-name="Caminho 15852" d="M133.556,227.161c-9.691-7.919-19.379-3.316-22.243,1.04-1.854,2.821-2.612,7.07-4.4,9.565-1.655,2.309-2.931,4.065-4.067,5.592a24.609,24.609,0,0,0,4.067-2.04,58.471,58.471,0,0,0,6.783-6.245s-1.348,4.812-3.283,6.794-1.368,6.157-.377,8.428c.343.791,2.211,3.392,1.063,5.673,1.119-.123,2.3-.244,3.715-.3,6.31,3.561,13.092,1.785,17.469-3.471C138.893,244.251,143.245,235.082,133.556,227.161Z" transform="translate(-98.195 -222.851)" fill="#ffb01f"/>
        <path id="Caminho_15853" data-name="Caminho 15853" d="M112.615,243.524c-.991-2.271-1.558-6.451.377-8.428s3.283-6.794,3.283-6.794a58.478,58.478,0,0,1-6.783,6.245,24.617,24.617,0,0,1-4.067,2.04c-.9,1.211-1.72,2.28-2.554,3.343-4.662,5.951-.646,9.206,3.231,9.529a34.892,34.892,0,0,0,7.576-.262C114.826,246.917,112.958,244.316,112.615,243.524Z" transform="translate(-100.772 -216.079)" fill="#ffd9c0"/>
      </g>
      <path id="Caminho_15854" data-name="Caminho 15854" d="M109.954,259.116a23.438,23.438,0,0,0,12.586,15.272,29.762,29.762,0,0,0,25.438-.235c6.236-3.047,12.541-9.794,16.523-13.415,10.281-9.348,12.866-5.7,16.707-10.267,3.686-4.379,16.258-10.491,10.11-19.725a32.834,32.834,0,0,0-9.745-9.28c-4.881-2.785-12.115-2.937-22.947,2.02-5.931,2.713-10.7,7.314-16.891,7.893-10.348.969-15.243-2.753-15.243-2.753S108.589,253.214,109.954,259.116Z" transform="translate(-89.136 -211.688)" fill="#ffb01f"/>
      <g id="Grupo_2971" data-name="Grupo 2971" transform="translate(74.384 13.843)">
        <path id="Caminho_15855" data-name="Caminho 15855" d="M156.438,253.7c2.179-5.02,6.693-8.673,7.686-18.633a14.082,14.082,0,0,0-5.843-10.718c-10.733-8.112-24.288,9.363-24.288,9.363s-.922,13,1.285,18.29c2.253,5.41,9.227,8.224,12.561,7.9,0,0,.15.632.291,1.594a12.5,12.5,0,0,1,3.908,1.341,8.965,8.965,0,0,0,2.718.834A25.82,25.82,0,0,1,156.438,253.7Z" transform="translate(-133.803 -222.206)" fill="#ffb01f"/>
        <path id="Caminho_15856" data-name="Caminho 15856" d="M146.429,247.653c2.94-5.3,6.554-12.834,6.088-19.709-.993,9.96-5.507,13.612-7.686,18.633a25.819,25.819,0,0,0-1.682,9.973,10.2,10.2,0,0,0,1.682.114C145.059,253.144,145.293,249.7,146.429,247.653Z" transform="translate(-122.195 -215.078)" fill="#d88600"/>
      </g>
      <path id="Caminho_15857" data-name="Caminho 15857" d="M108.185,245.831a22.683,22.683,0,0,0,13.738-2.383,42.873,42.873,0,0,0,13.417-12.682,36.406,36.406,0,0,1-10.832,15.956C117.522,252.471,108.185,245.831,108.185,245.831Z" transform="translate(-91.242 -197.729)" fill="#ffd9c0"/>
      <path id="Caminho_15858" data-name="Caminho 15858" d="M133.235,230.766c1.648,5.4.175,8.034-3.065,17.126-2.227,6.251.368,14.926.368,14.926a24,24,0,0,1-13.543-6.092c-6.285-5.711-7.115-9.162-7.115-9.162S128.087,245.168,133.235,230.766Z" transform="translate(-89.136 -197.729)" fill="#ffd9c0"/>
      <path id="Caminho_15859" data-name="Caminho 15859" d="M110.1,242.917a18.239,18.239,0,0,0,10.027-1.435,26.823,26.823,0,0,0,8.493-6.325s-2.388,8.016-9.931,10.42c-4.962,1.581-6.332,1.117-6.332,1.117A13.176,13.176,0,0,1,110.1,242.917Z" transform="translate(-88.868 -192.274)" fill="#f7c5a9"/>
      <path id="Caminho_15860" data-name="Caminho 15860" d="M125,256.2a19.99,19.99,0,0,1,3.227-2.17c.661-6.525,2.1-13.272,2.1-13.272l-11.265,4.22v10.96C120.229,257.143,122.319,258.4,125,256.2Z" transform="translate(-77.729 -185.318)" fill="#ffb01f"/>
      <g id="Grupo_2972" data-name="Grupo 2972" transform="translate(37.362 68.711)">
        <path id="Caminho_15861" data-name="Caminho 15861" d="M126.9,256.906c1.061-2.249,1.549-6.31,1.774-9.749-.478.325-.966.684-1.464,1.092-2.686,2.2-4.776.944-5.942-.262v6.186s-5.949,5.018-3.287,7.906C123.535,263.308,125.037,260.846,126.9,256.906Z" transform="translate(-117.291 -246.078)" fill="#ffd9c0"/>
        <path id="Caminho_15862" data-name="Caminho 15862" d="M128.478,258.237a86.2,86.2,0,0,0,1.469-10.462c.031-.365.067-.733.105-1.1a19.3,19.3,0,0,0-1.762,1.078c-.224,3.44-.713,7.5-1.774,9.749-1.859,3.94-3.361,6.4-8.919,5.173a3.394,3.394,0,0,0,.6.518C122.864,266.376,127.416,261.957,128.478,258.237Z" transform="translate(-116.912 -246.676)" fill="#f7c5a9"/>
      </g>
      <path id="Caminho_15863" data-name="Caminho 15863" d="M122.368,263.385s-.007-6.794,0-8.527c1.762,0,2.881,1.016,9.121-1.823s15.935-11.48,17.588-14.1,3.28-4.845,3.28-4.845a15.269,15.269,0,0,0,4.467,7.588c3.121,2.693,7.35,1.345,7.35,1.345s-.341,2.484-3.854,2.047a15.161,15.161,0,0,1-8.023-3.332s-11.778,10.368-17.5,13.462a28.082,28.082,0,0,1-10.22,3.482l-.444,3.621Z" transform="translate(-73.628 -193.596)" fill="#d88600"/>
      <g id="Grupo_2973" data-name="Grupo 2973" transform="translate(85.826 53.141)">
        <path id="Caminho_15864" data-name="Caminho 15864" d="M146.436,250.353c1.422-1.413,1.993-5.41,2.227-8.415a8.9,8.9,0,0,1-2.962-.865,12.5,12.5,0,0,0-3.908-1.341,15.8,15.8,0,0,1-.291,6.973c-2.379,2.321-3.1,4.639-2.256,6.146C142.467,253.741,144.532,252.246,146.436,250.353Z" transform="translate(-138.906 -239.732)" fill="#ffd9c0"/>
        <path id="Caminho_15865" data-name="Caminho 15865" d="M141.313,253.142c3.827.839,7.635-2.664,8.238-7.9.166-1.428.262-2.94.361-4.44a9.945,9.945,0,0,1-1.437-.083c-.233,3-.8,7-2.226,8.415-1.9,1.892-3.969,3.388-7.191,2.5A3.233,3.233,0,0,0,141.313,253.142Z" transform="translate(-138.718 -238.51)" fill="#f7c5a9"/>
      </g>
      <path id="Caminho_15866" data-name="Caminho 15866" d="M105.425,235.985a5.909,5.909,0,0,0,4.713,2.8c2.747.269,3.9-.65,3.9-.65a4.223,4.223,0,0,1-.361,1.52,13.5,13.5,0,0,1-9.379-.11c-2.989-1.052-3.527-2.74-3.527-2.74Z" transform="translate(-100.45 -191.246)" fill="#f7c5a9"/>
      <path id="Caminho_15867" data-name="Caminho 15867" d="M102.13,234.078s-3.052,4.009-.453,5.886,4.28.543,4.926-1.556S104.6,234.43,102.13,234.078Z" transform="translate(-100.629 -193.615)" fill="#373738"/>
      <g id="Grupo_2974" data-name="Grupo 2974" transform="translate(19.593 29.456)">
        <path id="Caminho_15868" data-name="Caminho 15868" d="M109.392,235.846s-.538-4.756,3.392-6.435c2.475-1.056,4.819,1.679,4.819,1.679s1.339,4.675-2.413,5.967A5.226,5.226,0,0,1,109.392,235.846Z" transform="translate(-109.367 -229.169)" fill="#d88600"/>
        <path id="Caminho_15869" data-name="Caminho 15869" d="M109.948,234.107a3.956,3.956,0,0,1,1.937-3.709,2.976,2.976,0,0,1,3.314.372s.65,2.874-1.821,3.742A3.272,3.272,0,0,1,109.948,234.107Z" transform="translate(-108.661 -228.104)" fill="#373738"/>
        <path id="Caminho_15870" data-name="Caminho 15870" d="M110.529,231.838a1.508,1.508,0,0,0,2.112,1,1.744,1.744,0,0,0,1.105-2.076S113.056,232.616,110.529,231.838Z" transform="translate(-107.923 -227.185)" fill="#444446"/>
        <path id="Caminho_15871" data-name="Caminho 15871" d="M111.849,231.166a.624.624,0,1,1-.617-.722A.674.674,0,0,1,111.849,231.166Z" transform="translate(-107.815 -227.585)" fill="#ffd9c0"/>
      </g>
      <path id="Caminho_15872" data-name="Caminho 15872" d="M111.986,232.853a57.8,57.8,0,0,1,4.812-6.967c1.843-1.975,4.727-5.258,8.3-3.953,3.388,1.24,3.33,5.325,2.605,8.911-.7,3.451-2.536,9.543-2.536,9.543S115.54,233.584,111.986,232.853Z" transform="translate(-86.52 -209.072)" fill="#ffb01f"/>
      <path id="Caminho_15873" data-name="Caminho 15873" d="M120.807,222.763c-2.473,1.507-3.058,3.085-5.688,6.489-1.928,2.5-1.509,1.969-1.509,1.969a15.248,15.248,0,0,1,4.5,2.4,34.251,34.251,0,0,1,3.8,3.81s2.321-9.077,2.433-11.864S122.446,221.763,120.807,222.763Z" transform="translate(-84.551 -208.137)" fill="#d88600"/>
      <path id="Caminho_15874" data-name="Caminho 15874" d="M109.51,230.694s.677-2.888,3.1-2.747,2.455.859,2.455.859a28.076,28.076,0,0,0-3.072.511A16.349,16.349,0,0,0,109.51,230.694Z" transform="translate(-89.596 -201.237)" fill="#d88600"/>
      <g id="Grupo_2975" data-name="Grupo 2975" transform="translate(9.042 23.084)">
        <path id="Caminho_15875" data-name="Caminho 15875" d="M104.661,233.448s2.987-.285,3.812-2.693a5.151,5.151,0,0,0-.675-4.428S105.163,230.744,104.661,233.448Z" transform="translate(-104.661 -226.327)" fill="#d88600"/>
        <path id="Caminho_15876" data-name="Caminho 15876" d="M106.935,226.964s.762.41.538,2.168c-.244,1.931-2.493,1.868-2.493,1.868S104.244,228.016,106.935,226.964Z" transform="translate(-104.379 -225.536)" fill="#373738"/>
        <path id="Caminho_15877" data-name="Caminho 15877" d="M105.039,227.98s-.146,1.072.5,1.058a1.477,1.477,0,0,0,1.377-1.123A1.439,1.439,0,0,1,105.039,227.98Z" transform="translate(-104.209 -224.354)" fill="#444446"/>
        <path id="Caminho_15878" data-name="Caminho 15878" d="M106.251,228.015a.532.532,0,1,1-.525-.617A.576.576,0,0,1,106.251,228.015Z" transform="translate(-103.993 -224.997)" fill="#ffd9c0"/>
      </g>
      <path id="Caminho_15879" data-name="Caminho 15879" d="M107.071,225.354c.26.045.522.276.738.814a4.317,4.317,0,0,1,.388,2.8,10.665,10.665,0,0,0-1.964-2.209C106.105,226.673,106.441,225.242,107.071,225.354Z" transform="translate(-93.7 -204.459)" fill="#d88600"/>
    </g>
  </g>
</svg>
