<svg xmlns="http://www.w3.org/2000/svg" width="54.909" height="48.159" viewBox="0 0 54.909 48.159">
  <g id="Grupo_3487" data-name="Grupo 3487" transform="translate(-2499.076 -3009.436)">
    <path id="Caminho_16103" data-name="Caminho 16103" d="M84.916,372.015a30.39,30.39,0,0,1-14.393-6.472c-1.212-1.008-2.232-2.337-3.521-3.22-1.035-.708-1.785-1.606-3.053-1.9-1.391-.32-2.876.328-4.3.125a16.371,16.371,0,0,1-3.926-1.411Q53.4,358.151,51.1,357.1c-.878-.4-3.234-2.086-4.139-1.955q6.247-.917,12.541-1.419c1.529-.123,3.689-.467,5.183-.052,1.734.482,3.075,2.36,4.459,3.444a13.112,13.112,0,0,0,5.821,2.657c4.064.706,7.774,1.1,11.334,3.39,3.534,2.275,7.089,3.731,10.17,6.8,1.177,1.17,1.893,2.123.091,2.877C93.316,374.2,88.163,372.649,84.916,372.015Z" transform="translate(2452.119 2684.215)" fill="#ab9da0" style="mix-blend-mode: multiply;isolation: isolate"/>
    <g id="Grupo_3030" data-name="Grupo 3030" transform="translate(2500.521 3009.435)">
      <g id="Grupo_3017" data-name="Grupo 3017">
        <path id="Caminho_16066" data-name="Caminho 16066" d="M71.015,361.479c-1.327.426-3.794,5.111-4.595,7.406a5.8,5.8,0,0,1-3.114,3.609c-1.479.553-3.847-.056-5.256-.642a10.647,10.647,0,0,1-2.927-2.412,18.323,18.323,0,0,0-2.562-1.876l-3.947-2.557a11.9,11.9,0,0,0,4.689-.544,7.058,7.058,0,0,0,2.107-1.026,7.215,7.215,0,0,0,1.793-2.158c1.053-1.8,2.784-5.948,1.217-7.766a24.908,24.908,0,0,0-2.506-2.279,5.488,5.488,0,0,1-2.005-2.907,28.594,28.594,0,0,1-1.1-4.2,3.583,3.583,0,0,0-1.81-2.458,4.829,4.829,0,0,1-1.413-1.884c-.12-.208-1.606-2.738-1.521-2.792,0,0,.945-.594,2.989.773s7.047.964,11.987,4.9a16.29,16.29,0,0,1,4.508,5.68,11.875,11.875,0,0,0,1.7,3.251,3.955,3.955,0,0,0,.567.4c.229.17.576.264.837.469-3.453-.031-2.526,5.923-1.369,7.816C69.65,360.891,70.462,360.984,71.015,361.479Z" transform="translate(-47.381 -336.834)" fill="#d40600"/>
        <path id="Caminho_16067" data-name="Caminho 16067" d="M71.365,358.914a8.773,8.773,0,0,1-1.124-.864c-.451-.436-.9-1.132-1.56-1.218a8.728,8.728,0,0,1-2.069-.3c-.492-.185-.995-.334-1.494-.488a3.432,3.432,0,0,1,.486-.075,16.57,16.57,0,0,1-.789-4.525,4.277,4.277,0,0,0-.11-1.126,4.759,4.759,0,0,0-.422-.8c-.129-.3,0-.59-.409-.758a1.583,1.583,0,0,0-.818-.038q-1.093.142-2.175.345a1,1,0,0,0-.289.087.755.755,0,0,0-.337.64,10.4,10.4,0,0,1-1.114,3.621.543.543,0,0,0,.085.7,5.765,5.765,0,0,0,1.2,1.259,4.079,4.079,0,0,0,1.98.758c.494.025,1.028.151,1.515.141l.013,0a3.355,3.355,0,0,1,.1,1.529,2.444,2.444,0,0,1-1.961,1.475,5.893,5.893,0,0,0,2.628,1.808c1.049.353,2.186.407,3.214.819a10.781,10.781,0,0,0,1.413.476,3.6,3.6,0,0,0,3.245-.55c.6-.455.966-1.176,1.581-1.612A6.3,6.3,0,0,1,71.365,358.914Z" transform="translate(-38.11 -325.866)" fill="#ff231e"/>
        <path id="Caminho_16068" data-name="Caminho 16068" d="M69.81,358.05c-.451-.436-.9-1.132-1.56-1.218a8.729,8.729,0,0,1-2.069-.3c-.492-.185-.995-.334-1.494-.488a3.432,3.432,0,0,1,.486-.075,16.571,16.571,0,0,1-.789-4.525,4.278,4.278,0,0,0-.11-1.126,4.759,4.759,0,0,0-.422-.8c-.129-.3,0-.59-.409-.758a1.583,1.583,0,0,0-.817-.038q-1.093.142-2.175.345a1,1,0,0,0-.289.087.755.755,0,0,0-.337.64,6.647,6.647,0,0,1-.307,1.566,6.2,6.2,0,0,1,.951,1.367,19.766,19.766,0,0,0,2.291,3.49,5.286,5.286,0,0,0,.731.054l.014,0a6.887,6.887,0,0,1,.147.972,15.367,15.367,0,0,0,2.433,2.117c1.6,1.1,3.021,2.169,4.39,3.149a3.308,3.308,0,0,0,1.668-.679c.6-.455.966-1.176,1.581-1.612a6.3,6.3,0,0,1-2.788-1.3A8.774,8.774,0,0,1,69.81,358.05Z" transform="translate(-37.696 -325.866)" fill="#d40600"/>
        <path id="Caminho_16069" data-name="Caminho 16069" d="M72.932,351.379s-2.177.172-2.927,3.891c-.708,3.513-.361,6.081,3.3,9.035S72.932,351.379,72.932,351.379Z" transform="translate(-29.001 -323.365)" fill="#d40600"/>
        <path id="Caminho_16070" data-name="Caminho 16070" d="M92.966,368.953a4.537,4.537,0,0,1-.21,1.1c-.59,1.9-2.368,2.549-5.117,1.982-.17-.035-.33-.068-.5-.11a48.736,48.736,0,0,1-5.74-1.893c-3.945-1.546-6.9-4.159-11.063-7.026a19.307,19.307,0,0,1-5.618-6.629c-.505-.981-1.207-1.787-1.7-1.9-1.116-.251-3.712-.532-4.8-.895a3.338,3.338,0,0,1-1.074-.534,2.888,2.888,0,0,1-.812-1.325,7.649,7.649,0,0,1-.4-2.512v-.008a7.8,7.8,0,0,1,.285-1.969,3.924,3.924,0,0,1,1.832-2.555,4.1,4.1,0,0,1,2.622-.189,6.239,6.239,0,0,1,1.77.883c1.116.561,2.3.158,3.42-.177,2.366-.7,8.215-.7,12.045,2.285,2.95,2.3,7.332,5.271,10.655,9.6.991,1.286,2.352,3.195,3.187,4.5.112.177.224.355.328.523C95.237,367.369,92.966,368.953,92.966,368.953Z" transform="translate(-41.777 -329.868)" fill="#ffce34"/>
        <path id="Caminho_16071" data-name="Caminho 16071" d="M65.547,353.2a1.5,1.5,0,0,0,.127,1.031c.066.145.557.912.708.7a.234.234,0,0,0,.012-.16,1.271,1.271,0,0,1,.118-.7c.145-.3.436-.71.756-.711a2.886,2.886,0,0,0-.63-.4,1.179,1.179,0,0,0-.789-.089A.479.479,0,0,0,65.547,353.2Z" transform="translate(-32.291 -322.003)" fill="#ffe047"/>
        <path id="Caminho_16072" data-name="Caminho 16072" d="M64.52,352.532a1.845,1.845,0,0,0,.158,1.371c.091.195.781,1.236,1,.968a.294.294,0,0,0,.019-.214,1.539,1.539,0,0,1,.187-.912c.214-.391.646-.912,1.107-.9a4.424,4.424,0,0,0-.9-.563,1.855,1.855,0,0,0-1.134-.16A.64.64,0,0,0,64.52,352.532Z" transform="translate(-33.221 -322.708)" fill="#ffe047"/>
        <path id="Caminho_16073" data-name="Caminho 16073" d="M72.932,351.379s-2.177.172-2.927,3.891c-.708,3.513-.361,6.081,3.3,9.035S72.932,351.379,72.932,351.379Z" transform="translate(-29.001 -323.365)" fill="#ff7200"/>
        <path id="Caminho_16074" data-name="Caminho 16074" d="M82.1,363.447a1.753,1.753,0,0,1-.042.307c-.476,2.478-4.257,2.861-7.56,2.165-.17-.035-.33-.067-.5-.11-.039-.027-1.371-.925-2.911-4.375a12.225,12.225,0,0,1-.573-1.5h-.008c-.8-2.487-.3-3.883.362-6.147.781-2.655,4.494-2.846,4.558-2.827.991,1.286,2.352,3.195,3.187,4.5.112.177.224.355.328.522C82.214,361.241,82.1,363.406,82.1,363.447Z" transform="translate(-28.638 -323.751)" fill="#ff971e"/>
        <path id="Caminho_16075" data-name="Caminho 16075" d="M91.432,361.581c-.835-1.3-2.2-3.212-3.189-4.5-3.32-4.323-7.7-7.29-10.653-9.592-3.827-2.99-9.675-2.987-12.043-2.281-1.12.334-2.308.737-3.418.17a6.031,6.031,0,0,0-1.776-.875,4.048,4.048,0,0,0-2.622.185,3.347,3.347,0,0,0-1.44,1.55,2.827,2.827,0,0,1,.7-.511,4.061,4.061,0,0,1,2.622-.185,6.083,6.083,0,0,1,1.776.877c1.111.565,2.449.148,3.6.351a34.948,34.948,0,0,1,12.089,4.276c3.881,2.26,6.07,3,9.852,6.929a28.467,28.467,0,0,1,3.042,3.717c4.772,6.744,4.024,8.582,4.024,8.582a2.638,2.638,0,0,1-.5,1.369,2.531,2.531,0,0,0,1.413-2.077S95.063,367.259,91.432,361.581Z" transform="translate(-41.452 -329.869)" fill="#9c8619" style="mix-blend-mode: screen;isolation: isolate"/>
        <g id="Grupo_3015" data-name="Grupo 3015" transform="translate(25.532 7.922)">
          <path id="Caminho_16076" data-name="Caminho 16076" d="M76.519,354.115s-1.249-9.178-3.253-10.844-7.188-2.138-7.654-2.306.681,2.836-2.077,4.7a5.645,5.645,0,0,0-1.67,1.411,1.776,1.776,0,0,0-.322,1c0,.347.278.748-.006,1.039a14.533,14.533,0,0,1,2.682.515c.893.137,1.884.114,2.753.339,1.436.374,6.982,2.327,8.819,4.411C75.96,354.568,76.519,354.115,76.519,354.115Z" transform="translate(-61.538 -340.958)" fill="#d40600"/>
        </g>
        <g id="Grupo_3016" data-name="Grupo 3016" transform="translate(24.836 7.923)">
          <path id="Caminho_16077" data-name="Caminho 16077" d="M76.142,354.379s-1.249-9.18-3.255-10.845-6.459-2.4-6.926-2.568-.046,3.1-2.8,4.959a5.673,5.673,0,0,0-1.67,1.411,1.786,1.786,0,0,0-.322,1c0,.345.278.746-.006,1.037a14.539,14.539,0,0,1,2.682.515c.895.137,1.884.116,2.753.341a26.193,26.193,0,0,1,4.334,1.4C72.889,352.537,76.142,354.379,76.142,354.379Z" transform="translate(-61.161 -340.959)" fill="#ff231e"/>
        </g>
        <path id="Caminho_16078" data-name="Caminho 16078" d="M70.656,342.315a6.979,6.979,0,0,0-1.747-.544.428.428,0,0,0,.158.407.982.982,0,0,1,.22.162.459.459,0,0,1,.067.162c.131.486.27.97.411,1.45a5.176,5.176,0,0,1,.094,1.1,3.716,3.716,0,0,1,.029,1.134,8.39,8.39,0,0,1-.656,1.757,5.116,5.116,0,0,0-.391-2.181,21.226,21.226,0,0,0-.735-2.229,5.083,5.083,0,0,0-1.01-1.5c-.3-.312-.586-.819-.987-1.014-.538-.26-.324.607-.251.939a10.2,10.2,0,0,0,.632,1.888,4.977,4.977,0,0,1,.343.858,2.982,2.982,0,0,1,.044.935,7.6,7.6,0,0,1-.544,2.279,4.874,4.874,0,0,1-.256-1.141,8.125,8.125,0,0,0-.544-1.859,5.943,5.943,0,0,0-.534-1.2,2.734,2.734,0,0,0-.6,1.3c-.037.573.083,1.143.077,1.716a5.2,5.2,0,0,1-.228,1.406,3.81,3.81,0,0,0-.418-1.132c-.249-.438-.617-.6-.92-.947a4.151,4.151,0,0,0-1.475,1.271,2.019,2.019,0,0,0-.229.461,3.59,3.59,0,0,0,.5,1.446.91.91,0,0,0,.189.206c.145.029.3.062.453.1.353-.081.721-.43,1.116-.482a9.425,9.425,0,0,1,3.484.706l4.7,1.388a14.281,14.281,0,0,1,3.652,2.055c-.094-.06-.229-2.447-.322-2.773-.274-.976-.665-1.913-.968-2.879-.243-.779-.683-1.438-.978-2.2a16.946,16.946,0,0,1-.3,4.7c-.218-.056-.266-.339-.28-.563a27.064,27.064,0,0,0-.7-4.348c-.081-.37-.2-.75-.268-1.118A2.593,2.593,0,0,0,70.656,342.315Z" transform="translate(-36.257 -333.03)" fill="#ff3c2e"/>
        <path id="Caminho_16079" data-name="Caminho 16079" d="M95.2,367.539c-.476,2.478-4.257,2.861-7.56,2.165-.17-.035-.33-.067-.5-.11A48.73,48.73,0,0,1,81.4,367.7c-3.945-1.546-6.9-4.159-11.063-7.026a19.308,19.308,0,0,1-5.618-6.629c-.505-.981-1.207-1.787-1.7-1.9-1.116-.251-3.712-.532-4.8-.895a3.338,3.338,0,0,1-1.074-.534,2.888,2.888,0,0,1-.812-1.325,7.648,7.648,0,0,1-.4-2.512l3.262,1.263s6.449,1.007,7.911,3.858S73.828,360.6,83.4,365.1h.008c5.125,2.412,6.484,2.782,8.91,2.863a5.5,5.5,0,0,0,2.871-.415A.008.008,0,0,0,95.2,367.539Z" transform="translate(-41.777 -327.537)" fill="#ffcc91" style="mix-blend-mode: multiply;isolation: isolate"/>
        <path id="Caminho_16080" data-name="Caminho 16080" d="M88.861,370.991a46.862,46.862,0,0,1-5.744-1.893c-3.943-1.541-6.025-3.4-10.5-5.759-3.694-1.945-6.9-6.937-6.9-6.937-.513-.979-1.207-1.78-1.7-1.891-1.114-.254-2.987-1.492-4.068-1.861a3.336,3.336,0,0,1-1.08-.528,2.86,2.86,0,0,1-.806-1.329,7.632,7.632,0,0,1-.118-4.485,4.753,4.753,0,0,1,1-1.909,2.912,2.912,0,0,0-.887.26,3.954,3.954,0,0,0-1.83,2.555,7.648,7.648,0,0,0,.116,4.485,2.882,2.882,0,0,0,.806,1.328,3.349,3.349,0,0,0,1.082.53c1.082.368,3.677.644,4.791.9.5.114,1.19.912,1.7,1.893a19.15,19.15,0,0,0,5.615,6.631c4.163,2.871,7.12,5.483,11.061,7.026a47.448,47.448,0,0,0,5.744,1.891l0,0c3.021.744,6.617.59,7.741-1.267C93.49,371.525,91.172,371.56,88.861,370.991Z" transform="translate(-41.775 -329.843)" fill="#ff971e" style="mix-blend-mode: multiply;isolation: isolate"/>
        <path id="Caminho_16081" data-name="Caminho 16081" d="M76.4,358.463c-.193,1.24-1.147,1.6-2.131.812a4.365,4.365,0,0,1-1.431-3.681c.193-1.24,1.145-1.6,2.129-.81A4.359,4.359,0,0,1,76.4,358.463Z" transform="translate(-26.125 -320.595)" fill="#ffce34"/>
        <path id="Caminho_16082" data-name="Caminho 16082" d="M70.663,361.462c-1.325.426-3.793,5.111-4.595,7.406a5.781,5.781,0,0,1-3.114,3.607c-1.477.555-3.845-.054-5.256-.64a10.587,10.587,0,0,1-2.925-2.414,18.691,18.691,0,0,0-2.562-1.874l-3.949-2.557a11.908,11.908,0,0,0,4.691-.544,7.073,7.073,0,0,0,2.105-1.026,7.186,7.186,0,0,0,1.793-2.158c1.053-1.8,2.786-5.948,1.217-7.766a24.872,24.872,0,0,0-2.5-2.279,5.467,5.467,0,0,1-2.005-2.907,28.363,28.363,0,0,1-1.107-4.2,3.583,3.583,0,0,0-1.81-2.458,4.829,4.829,0,0,1-1.413-1.884,31.739,31.739,0,0,1-1.519-2.792s.943-.594,2.989.773,7.047.964,11.985,4.9a16.27,16.27,0,0,1,4.51,5.68,11.923,11.923,0,0,0,1.7,3.251,4.058,4.058,0,0,0,.567.4c.229.17.578.264.837.469-.445-.353-1.458.507-1.718.781a9.046,9.046,0,0,1-1.907,1.29.952.952,0,0,0-.457,1.267,9.2,9.2,0,0,0,.825,2.686,4.839,4.839,0,0,0,1.768,1.845C69.075,360.491,70.413,361.543,70.663,361.462Z" transform="translate(-47.706 -336.849)" fill="#ff231e"/>
        <path id="Caminho_16083" data-name="Caminho 16083" d="M67.039,362.525q-.92-.561-1.839-1.126a28.152,28.152,0,0,1-4.282-3.008,3.019,3.019,0,0,1-1.008-1.425,1.207,1.207,0,0,1,.684-1.452,1.276,1.276,0,0,1-.189-2.408c.262-.114.584-.152.758-.382.233-.31.046-.75-.145-1.089q-.425-.755-.852-1.508a4.344,4.344,0,0,1,1.367.6,15.287,15.287,0,0,1-4.224-3.274l6.168,3.054a10.89,10.89,0,0,1-1.974-1.751c-.347-.538-.287-.956-.947-1.369q-2.542-1.588-5.084-3.177c2.125-.445,4.273.472,6.249,1.369A11,11,0,0,1,64.2,347.1a12.971,12.971,0,0,1,2.728,2.437,40.472,40.472,0,0,0-2.291-3.4,10.577,10.577,0,0,0-2-2.508,12.441,12.441,0,0,0-3.328-2.069c-1.718-.6-3.607-.885-5.374-1.317a8.223,8.223,0,0,1-2.188-.756c-.86-.5-1.548-1.2-2.439-1.652-.49-.245-.951-.644-1.444-.954a.857.857,0,0,0-.15.062,31.774,31.774,0,0,0,1.519,2.792,4.842,4.842,0,0,0,1.413,1.884,3.583,3.583,0,0,1,1.81,2.458,28.358,28.358,0,0,0,1.107,4.2,5.467,5.467,0,0,0,2.005,2.907,24.882,24.882,0,0,1,2.5,2.279c1.569,1.818-.164,5.962-1.217,7.766a7.189,7.189,0,0,1-1.793,2.157,7.073,7.073,0,0,1-2.105,1.026,11.979,11.979,0,0,1-4.336.557c.141.039.283.081.424.118a16.59,16.59,0,0,1,2.935.908,43.536,43.536,0,0,1,3.779,2.456,6.675,6.675,0,0,0,3.332,1.263c-.148-.2-.064-.391-.11-.573,1.625-.281,3.357-.28,5.005-.409.089-.6-.717-.879-1.053-1.379-.4-.588-.079-1.375-.1-2.084-.042-1.276-1.18-2.206-2.215-2.954A19.028,19.028,0,0,0,67.039,362.525Z" transform="translate(-47.706 -336.817)" fill="#ff3c2e"/>
        <path id="Caminho_16084" data-name="Caminho 16084" d="M75.884,358.008c-.147.939-.868,1.215-1.612.615a3.3,3.3,0,0,1-1.084-2.786c.145-.939.868-1.215,1.612-.615A3.3,3.3,0,0,1,75.884,358.008Z" transform="translate(-25.794 -320.093)" fill="#efefef"/>
        <path id="Caminho_16085" data-name="Caminho 16085" d="M75.249,357.355c-.091.588-.544.762-1.012.384a2.067,2.067,0,0,1-.681-1.749c.093-.588.546-.762,1.012-.386A2.073,2.073,0,0,1,75.249,357.355Z" transform="translate(-25.444 -319.628)" fill="#383838"/>
        <path id="Caminho_16086" data-name="Caminho 16086" d="M74.523,356.655c-.054.345-.318.447-.592.226a1.213,1.213,0,0,1-.4-1.024c.054-.345.318-.445.592-.226A1.213,1.213,0,0,1,74.523,356.655Z" transform="translate(-25.46 -319.527)" fill="#636363"/>
        <path id="Caminho_16087" data-name="Caminho 16087" d="M65.311,354.564a.554.554,0,0,0-.012.627,1.558,1.558,0,0,0,.486.451c.278.191.557.374.843.553a2.229,2.229,0,0,1,.467.345c.106.11.189.239.291.353a2.006,2.006,0,0,0,1.369.561c.5.035,1.01-.029,1.514,0,.966.048,1.9.424,2.861.444a.739.739,0,0,0,.434-.089.291.291,0,0,0,.1-.389.464.464,0,0,0-.214-.131,2.934,2.934,0,0,1-1.053-.727,5.022,5.022,0,0,0-1.244-1.145,5.855,5.855,0,0,0-1.639-.478,18.246,18.246,0,0,0-2.092-.309c-.353-.031-.7-.052-1.057-.062C66.218,354.56,65.4,354.458,65.311,354.564Z" transform="translate(-32.701 -320.454)" fill="#ff7200"/>
        <path id="Caminho_16088" data-name="Caminho 16088" d="M73.3,357.2c.31.895-2.206.237-2.52.106a2.487,2.487,0,0,0-1.83-.1,3.149,3.149,0,0,1-1.76-.123,4.268,4.268,0,0,1-1.222-1.182,1.956,1.956,0,0,1-.293-.416,2.122,2.122,0,0,1-.108-1.111c0-.035.01-.075.04-.091a.1.1,0,0,1,.064,0,11.245,11.245,0,0,1,1.309.3,16.351,16.351,0,0,0,2.8.266,4.277,4.277,0,0,1,2.059.974,5.113,5.113,0,0,0,.771.665,2.325,2.325,0,0,1,.467.382.893.893,0,0,1,.17.2A.816.816,0,0,1,73.3,357.2Z" transform="translate(-32.394 -320.672)" fill="#d40600"/>
        <path id="Caminho_16089" data-name="Caminho 16089" d="M73.3,357.278c.308.895-2.208.237-2.52.106a2.477,2.477,0,0,0-1.83-.1,3.149,3.149,0,0,1-1.76-.123,4.248,4.248,0,0,1-1.222-1.184,1.905,1.905,0,0,1-.295-.415,2.146,2.146,0,0,1-.106-1.112c0-.033.008-.073.039-.089a.091.091,0,0,1,.064,0,10.728,10.728,0,0,1,1.309.3,16.36,16.36,0,0,0,2.8.266,4.285,4.285,0,0,1,2.057.972,5.113,5.113,0,0,0,.773.665,2.332,2.332,0,0,1,.465.384.891.891,0,0,1,.17.2A1.068,1.068,0,0,1,73.3,357.278Z" transform="translate(-32.397 -320.601)" fill="#ff4a1e"/>
        <path id="Caminho_16090" data-name="Caminho 16090" d="M66.628,355.366a6.759,6.759,0,0,1-.964-.715c-.017-.017-.042-.039-.067-.031a2.424,2.424,0,0,0,.866,1.544,2.533,2.533,0,0,0,.771.528,2.871,2.871,0,0,0,1.14.177,8.849,8.849,0,0,1,1.6-.056,5.546,5.546,0,0,1,1.677.494,1.467,1.467,0,0,0,.636.2.149.149,0,0,0,.106-.037c.046-.046.021-.123-.012-.179a1.233,1.233,0,0,0-.555-.442A9.454,9.454,0,0,0,69.2,356.2,6.466,6.466,0,0,1,66.628,355.366Z" transform="translate(-32.325 -320.359)" fill="#ff5f38"/>
        <path id="Caminho_16091" data-name="Caminho 16091" d="M68.758,355.081c-.482-.147-1-.137-1.494-.241s-.97-.2-1.456-.287c-.017.091.056.176.125.239a2.453,2.453,0,0,0,.844.526c.249.081.445.233.69.324a2.811,2.811,0,0,0,.683.141,3.318,3.318,0,0,1,.669.16,5.331,5.331,0,0,0,.577.12l1.535.357a5.91,5.91,0,0,1,.673.183,2.064,2.064,0,0,1,.7.4.276.276,0,0,0-.033-.274.768.768,0,0,0-.22-.189,12.359,12.359,0,0,0-2.589-1.23C69.229,355.226,68.993,355.155,68.758,355.081Z" transform="translate(-32.137 -320.419)" fill="#ff5f38"/>
      </g>
      <path id="Caminho_16092" data-name="Caminho 16092" d="M61.2,348.527a1.075,1.075,0,0,0-.079.891c.039.129.389.839.59.679.039-.029.04-.085.044-.135a1.015,1.015,0,0,1,.264-.575,1.306,1.306,0,0,1,.929-.515,2.736,2.736,0,0,0-.573-.413,1.411,1.411,0,0,0-.8-.17A.542.542,0,0,0,61.2,348.527Z" transform="translate(-36.141 -326.241)" fill="#ffe047"/>
      <path id="Caminho_16093" data-name="Caminho 16093" d="M68.324,350.078a1.465,1.465,0,0,0,.536.844c-.073-.066.071-.389.106-.47a1.93,1.93,0,0,1,.5-.557,1.347,1.347,0,0,1,.43-.208.959.959,0,0,1,.524-.066,2.975,2.975,0,0,0-.611-.5,1.559,1.559,0,0,0-.877-.241.6.6,0,0,0-.436.239A1.318,1.318,0,0,0,68.324,350.078Z" transform="translate(-29.869 -325.687)" fill="#ffe047"/>
      <path id="Caminho_16094" data-name="Caminho 16094" d="M69.617,349.457a1.329,1.329,0,0,0-.337.92,1.551,1.551,0,0,0,.2.873c-.079-.148.413-.528.494-.625a1.592,1.592,0,0,1,.816-.436,4.317,4.317,0,0,1,.605-.1c.1-.01.2,0,.3-.014s.16-.064.243-.089c.01-.054-.04-.1-.089-.125a4.171,4.171,0,0,0-1.006-.44,3.075,3.075,0,0,0-.671-.181A.721.721,0,0,0,69.617,349.457Z" transform="translate(-29.042 -325.352)" fill="#ffe047"/>
      <path id="Caminho_16095" data-name="Caminho 16095" d="M70.077,350.593s-.177-.141-.2-.156a1.84,1.84,0,0,0-.253-.146,1.412,1.412,0,0,0-.8-.141.543.543,0,0,0-.368.251c-.268.424-.035.852.137,1.257a.444.444,0,0,0,.214.268.578.578,0,0,1,.046-.312,2.246,2.246,0,0,1,.26-.455A2.072,2.072,0,0,1,70.077,350.593Z" transform="translate(-29.837 -324.519)" fill="#ffe047"/>
      <path id="Caminho_16096" data-name="Caminho 16096" d="M66.177,352.156a1.492,1.492,0,0,0,.073,1.037c.058.146.509.937.671.737a.243.243,0,0,0,.021-.16,1.267,1.267,0,0,1,.15-.688c.16-.295.472-.686.792-.673a2.884,2.884,0,0,0-.611-.43,1.176,1.176,0,0,0-.781-.129A.474.474,0,0,0,66.177,352.156Z" transform="translate(-31.762 -322.951)" fill="#ffe047"/>
      <path id="Caminho_16097" data-name="Caminho 16097" d="M61.575,347.243a1.729,1.729,0,0,0,.015,1.442c.085.2.764,1.284,1.059.995a.294.294,0,0,0,.05-.224,1.638,1.638,0,0,1,.33-.968,2.11,2.11,0,0,1,1.409-.976,4.467,4.467,0,0,0-.987-.573,2.276,2.276,0,0,0-1.309-.141A.872.872,0,0,0,61.575,347.243Z" transform="translate(-35.844 -327.657)" fill="#ffe047"/>
      <path id="Caminho_16098" data-name="Caminho 16098" d="M62.394,348.563a1.409,1.409,0,0,0,.175,1.165c.091.154.762.953.968.686a.254.254,0,0,0,.015-.189,1.33,1.33,0,0,1,.156-.818c.2-.374.594-.893,1.032-.948a3.536,3.536,0,0,0-.864-.351,1.836,1.836,0,0,0-1.074.033A.7.7,0,0,0,62.394,348.563Z" transform="translate(-35.048 -326.46)" fill="#ffe047"/>
      <path id="Caminho_16099" data-name="Caminho 16099" d="M63.328,344.974c-.53,0-1.421,1.149-1.747,1.552a4.486,4.486,0,0,0-.995,2.74,2.334,2.334,0,0,0,.33,1.544,14.932,14.932,0,0,0,3.008,3.1c-1.6-.758-3.235-1.057-4.782-1.936a32,32,0,0,1-3.831-2.736,1.318,1.318,0,0,1-.538-.669l3.012.052c-.029-.3-.334-.478-.6-.609l-1.922-.937a15.256,15.256,0,0,0,5.753-1.238A4.78,4.78,0,0,1,63.328,344.974Z" transform="translate(-41.655 -329.309)" fill="#ff3c2e"/>
      <path id="Caminho_16100" data-name="Caminho 16100" d="M69.173,356.074a7.234,7.234,0,0,0-.453.731.109.109,0,0,0-.012.069c.108.463.673.316,1,.391a3.966,3.966,0,0,0,1.371.324c.168-.019-.264-.977-.3-1.112-.11-.426-.7-1.427-1.288-1.147-.253.121-.17.37-.249.6A1.023,1.023,0,0,1,69.173,356.074Z" transform="translate(-29.531 -319.744)" fill="#ff8126"/>
    </g>
  </g>
</svg>
