<svg xmlns="http://www.w3.org/2000/svg" width="183.672" height="200.564" viewBox="0 0 183.672 200.564">
  <g id="Layer_2" data-name="Layer 2" transform="translate(-0.002 0.014)">
    <g id="Layer_1" data-name="Layer 1" transform="translate(0.002 -0.014)">
      <path id="Caminho_303" data-name="Caminho 303" d="M38.736,114.142c-2.85.6-4.753,2.737-6.988,4.321a22.982,22.982,0,0,1-17.656,4.3C3.308,120.953-2.814,109.226,1.623,98.773c.82-1.932,1.545-3.431.422-5.718-3.3-6.84-2.685-13.581,2.463-19.313C9.6,68.07,16.119,66.705,23.459,68.626a27.789,27.789,0,0,1,9.606,4.958c1.246.932,2.519,1.837,3.839,2.653,1.809,1.115,3.99,2.185,5.855,1.14,2.189-1.221-.89-3.3.081-5,8.36.084,13.37-3.167,16.185-11.576,3.716-11.221.514-22.318-1.369-33.426-3.406-1.724-.954,5.707-.661,8.525.676,6.537,1.654,13.061.746,19.64A19.919,19.919,0,0,1,56.279,61c-4.507,9.9-10.492,11.4-19.285,4.958-.978-.7-1.911-1.492-2.839-2.269-13.064-10.957-13.581-20.013-1.7-32.212,3.712-3.828,7.589-7.561,11.611-11.08,3.139-2.759,6.833-5.587,11-5.278,5.552.422,8.627-2.463,12.29-5.742a36.814,36.814,0,0,1,51.817,2.674c1.956,2.132,3.747,3.4,6.618,2.769a4.261,4.261,0,0,1,1.038,0c10.387.352,31.832,20.534,32.849,30.9a15.285,15.285,0,0,1-3.1,10.714,41.761,41.761,0,0,1-13.089,11.65c-5.714,3.311-9.9,2.16-13.859-3.237-3.592-4.9-4.345-10.485-3.99-16.27.352-5.521,1.077-11.013,1.531-16.537.13-1.555.862-3.283-.267-4.641-1.256-.028-1.6.538-1.692,1.263-1,7.888-2.322,15.749-2.111,23.743a24.749,24.749,0,0,0,4.975,14.472c3.128,4.222,7.181,6.193,12.135,5.422,1.341,1.97-1.777,3.811.151,4.986,1.819,1.108,4.131.331,5.915-.739,3.406-2.041,6.492-4.683,10.028-6.425,6.819-3.357,13.785-3.42,20.179,1.126C182.031,75.2,184.867,81,183.2,87.528c-1.439,5.63-.915,10.587,0,16.185,2.139,13.212-10.425,22.642-23.739,18.518a21.784,21.784,0,0,1-7.779-4.046,17.736,17.736,0,0,0-10.021-4.574l-.922-.172c-.619-.127-1.235-.25-1.858-.352-32.068-.352-64.132-.109-96.189-.12a6.632,6.632,0,0,0-2.463.559Q39.493,113.849,38.736,114.142Z" transform="translate(-0.002 0.014)" fill="#3c2417"/>
      <path id="Caminho_304" data-name="Caminho 304" d="M174.9,326.071c6.333.9,12.705,1.471,18.884,3.262a11.523,11.523,0,0,1,8.335,7.642c2.913,7.941,6.217,15.759,9.743,23.451,1.552,3.381.683,4.729-2.463,6.1-21.287,9.264-43.587,11.766-66.5,10.095A125.654,125.654,0,0,1,100.766,366.5c-3.237-1.432-3.87-2.815-2.343-6.119,3.518-7.688,6.858-15.481,9.753-23.437,1.552-4.254,4.289-6.393,8.335-7.632,5.823-1.78,11.907-2.463,17.818-3.205,7.7-.507,6.784-.605,9.581-.605,11.259-.461,16.931-.778,28.44.306A18.021,18.021,0,0,1,174.9,326.071Z" transform="translate(-63.281 -210.695)" fill="#3c2516"/>
      <path id="Caminho_305" data-name="Caminho 305" d="M200.293,78.957h-1.27c-8.49.186-13.722,2.713-14.876,7.839-1.538,6.907,2.635,11.4,7.533,15.267,3.976,3.146,3.958,4.314-.482,6.977-5.148,3.089-12.667,2.931-17.075-.894-5.081-4.388-8.181-9.873-6.625-16.917,1.172-5.309,4.511-9.313,8.726-12.5,3.849-2.913,7.938-5.517,11.963-8.209,8.754-5.879,11.182-14.018,7.055-23.789-3.153-7.424-8.828-12.308-16.139-15.235-2.871-1.151-2.463-1.977-.7-3.814,11.083-11.762,32.314-11.769,43.506-.1,2.343,2.442,1.372,3.061-1.094,4.11-8.36,3.557-14.493,9.328-16.8,18.416-1.9,7.477-.391,13.972,5.679,19.186,6.414,5.513,13.631,10.112,19.236,16.537,5.774,6.622,5.837,11.921.507,19.13a15.274,15.274,0,0,1-18.528,4.926,16.185,16.185,0,0,1-3.1-1.854c-2.509-1.854-3.733-3.519.127-5.513a17.219,17.219,0,0,0,6.748-7.037c4.092-7.192,1.545-13.37-6.411-15.58a24.179,24.179,0,0,0-7.973-.946Z" transform="translate(-108.303 -12.209)" fill="#fdc44d"/>
      <path id="Caminho_306" data-name="Caminho 306" d="M317.26,242.2c9.556-1.478,15.481-7.347,18.384-16.146,1.312-3.969,3.328-5.524,7.389-4.961,6.207.866,12.624-.732,17.037-5.186a15.935,15.935,0,0,1,8.117-4.3c5.485-1.179,10.474.633,13.1,4.926,2.509,4.1,2.013,9.222-1.587,13.37-1.443,1.668-2.572,2.5-.369,4.8,4.3,4.486,4.6,9.7,1.64,14.123-2.815,4.222-8.279,5.939-13.838,4.264a23.628,23.628,0,0,1-7.621-4.289,26.278,26.278,0,0,0-10.1-4.87c-9.018.25-18.039.243-27.054.12C320.581,244.024,318.08,245.174,317.26,242.2Z" transform="translate(-205.633 -136.916)" fill="#fefefe"/>
      <path id="Caminho_307" data-name="Caminho 307" d="M51.6,244.136c-4.127.468-7.347,2.4-10.506,4.831s-6.583,4.363-10.767,4.511c-4.954.172-8.8-1.612-11.006-6.147-2.072-4.293-1.541-8.553,1.685-11.995,2.132-2.276,2.5-3.487.063-5.981-3.6-3.673-3.976-8.413-1.33-12.892s6.931-5.981,11.995-5.278a16.92,16.92,0,0,1,8.8,4.071,21.623,21.623,0,0,0,17.125,5.672c4.159-.412,6.442,1.214,7.9,5.478,2.917,8.564,8.856,14.222,18.18,15.64-.471,2.5-2.523,1.872-4.05,1.872C70.329,243.932,60.963,244.509,51.6,244.136Z" transform="translate(-11.68 -136.768)" fill="#fefefe"/>
      <path id="Caminho_308" data-name="Caminho 308" d="M113.46,298.59c7.628-1.893,15.383-.3,23.053-.866,3.033-.225,6.2.848,9.092-.859h5.306a17.527,17.527,0,0,0,5.046-.229,43.444,43.444,0,0,1,18.884,0,17.909,17.909,0,0,0,5.049.232h5.278c5.535,1.837,11.242.4,16.847.876,5.091.436,11.259-.989,16.28.82.57.391-.039.4-4.117.394a8.793,8.793,0,0,1-3.575.352H118.108a8.414,8.414,0,0,1-3.571-.352Z" transform="translate(-73.54 -191.587)" fill="#fff"/>
      <path id="Caminho_309" data-name="Caminho 309" d="M248.878,287.151a96.973,96.973,0,0,1-28.978,0c5.932-.408,10.531-6.91,14.669-6.548C238.833,280.976,243.2,286.5,248.878,287.151Z" transform="translate(-142.529 -181.858)" fill="#faf9f9"/>
      <path id="Caminho_310" data-name="Caminho 310" d="M116.52,305.14h99.64c-1.506,1.2-3.293.852-4.989.852q-44.833.021-89.665,0C119.81,305.992,118.022,306.347,116.52,305.14Z" transform="translate(-75.523 -197.772)" fill="#37250e"/>
      <path id="Caminho_311" data-name="Caminho 311" d="M170.015,401.717c-15.861-.38-31.374-2.312-46.3-7.98-2.991-1.136-3.571-2.234-2.224-5.1,2.273-4.838,2.956-11.259,6.576-14.391,3.811-3.286,9.736,1.056,14.823,1.464,22.29,1.851,44.53,2.956,66.5-2.7,1.826-.472,2.79-.3,3.536,1.647,1.977,5.155,4.039,10.285,6.361,15.288,1.467,3.167-1.056,3.04-2.6,3.645C201.688,399.536,185.967,401.344,170.015,401.717Z" transform="translate(-78.302 -241.62)" fill="#fdfefd"/>
      <path id="Caminho_312" data-name="Caminho 312" d="M157.12,348.429a171.973,171.973,0,0,1,73.213.021A172.758,172.758,0,0,1,157.12,348.429Z" transform="translate(-101.838 -223.282)" fill="#fcfcfc"/>
      <path id="Caminho_313" data-name="Caminho 313" d="M237.62,402.754a14.659,14.659,0,0,1,1.056,1.555,3.471,3.471,0,0,1-3.167,5.211,4.406,4.406,0,0,1-2.692-.8c-2.463-2.262-5.376-2.357-8.462-2.329-9,.088-18,.07-26.994,0a7.913,7.913,0,0,0-5.162,1.636,8.163,8.163,0,0,1-2.716,1.379,3.377,3.377,0,0,1-3.99-1.386,3.513,3.513,0,0,1,.144-4.24c.232-.334.5-.644.778-1.006-.267-.352-.528-.658-.764-.992a3.579,3.579,0,0,1-.183-4.24,3.508,3.508,0,0,1,3.99-1.425,6.107,6.107,0,0,1,2.385,1.122,8.8,8.8,0,0,0,5.725,1.963c.781,0,28-.105,28.8-.095,5.981.081-19.095,5.492-14.352,1.759,1.759.732,4.222-1.506,5.893-1.2,3.044.563-2.815,4.9-1.633,1.738.676-1.826,9.173-2.326,11-2.389a13.175,13.175,0,0,0,4.187-1.351c.746-.3,1.358-.943,2.111-1.27a3.89,3.89,0,0,1,4.859.964,3.671,3.671,0,0,1-.313,4.743c-.169.211-.327.429-.486.637" transform="translate(-119.81 -256.644)" fill="#3b2415"/>
      <path id="Caminho_314" data-name="Caminho 314" d="M254.306,210.871c0,1.513-3.684,2.741-8.223,2.741s-8.223-1.228-8.223-2.741,3.68-2.741,8.223-2.741,8.223,1.228,8.223,2.741" transform="translate(-154.17 -134.895)" fill="#fff"/>
      <circle id="Elipse_46" data-name="Elipse 46" cx="4.194" cy="4.194" r="4.194" transform="translate(68.617 38.543)" fill="#f4f2f0"/>
      <circle id="Elipse_47" data-name="Elipse 47" cx="4.194" cy="4.194" r="4.194" transform="translate(106.719 38.543)" fill="#f4f2f0"/>
      <rect id="Retângulo_157" data-name="Retângulo 157" width="0.725" height="0.362" transform="matrix(0.994, 0.113, -0.113, 0.994, 144.393, 106.897)" fill="#fff"/>
      <text id="PET_STORE" data-name="PET STORE" transform="translate(37.507 195.564)" fill="#3c2417" font-size="22" font-family="Linotte-Bold" font-weight="700"><tspan x="0" y="0">PE</tspan><tspan y="0" letter-spacing="-0.03em">T </tspan><tspan y="0" letter-spacing="-0.02em">S</tspan><tspan y="0" letter-spacing="-0.01em">T</tspan><tspan y="0">ORE</tspan></text>
    </g>
  </g>
</svg>
