<svg xmlns="http://www.w3.org/2000/svg" width="61.849" height="42.812" viewBox="0 0 61.849 42.812">
  <g id="Grupo_3486" data-name="Grupo 3486" transform="translate(-2530 -2883)">
    <g id="Grupo_2995" data-name="Grupo 2995" transform="translate(2530 2883)">
      <g id="Grupo_2994" data-name="Grupo 2994" transform="translate(0 1.137)">
        <g id="Grupo_2989" data-name="Grupo 2989" transform="translate(0 18.195)">
          <path id="Caminho_15940" data-name="Caminho 15940" d="M34.251,309.2c2.919.087,3.742-1.318,8.758-3.51a41.007,41.007,0,0,1,5.929-2.347l.952.942.334-.178-3.492-2.986s-8.576,1.939-10.786,2.725a10.755,10.755,0,0,0-4.959,3.445A3.811,3.811,0,0,0,34.251,309.2Z" transform="translate(-30.572 -301.125)" fill="#f7c5a9"/>
          <path id="Caminho_15941" data-name="Caminho 15941" d="M30.762,307.688A3.518,3.518,0,0,0,35,310.673c2.342-.52,13.364-5.321,15.389-6.4l-1.286-1.82a41.019,41.019,0,0,0-5.929,2.347c-5.016,2.192-5.839,3.6-8.758,3.51a3.811,3.811,0,0,1-3.263-1.91A1.77,1.77,0,0,0,30.762,307.688Z" transform="translate(-30.74 -300.226)" fill="#ef9d65"/>
        </g>
        <g id="Grupo_2990" data-name="Grupo 2990" transform="translate(53.225 14.54)">
          <path id="Caminho_15942" data-name="Caminho 15942" d="M63.792,299.865l-1.346,6.674s2.689,6.162,6.206,4.131a4.992,4.992,0,0,0,1.741-1.6,9.745,9.745,0,0,0-2.325-6.429C67.338,301.586,65.424,300.577,63.792,299.865Z" transform="translate(-62.446 -298.326)" fill="#ffd9c0"/>
          <path id="Caminho_15943" data-name="Caminho 15943" d="M69.644,303.731c-.891-2.008-6.085-4.783-6.085-4.783l-.311,1.539c1.632.712,3.545,1.721,4.276,2.778a9.745,9.745,0,0,1,2.325,6.429C71.124,307.724,70.33,305.278,69.644,303.731Z" transform="translate(-61.902 -298.948)" fill="#f7c5a9"/>
        </g>
        <g id="Grupo_2991" data-name="Grupo 2991" transform="translate(21.522 26.274)">
          <path id="Caminho_15944" data-name="Caminho 15944" d="M46.949,319.446c2.008.718,5.379-2.177,7.178-4.7a26.217,26.217,0,0,0,2.2-3.386l1.826.438c.972-1.969,1.524-3.465,1.524-3.465l-6.436-2.4s-2.773,4.682-4.438,6.038a53.1,53.1,0,0,0-4.934,5.088A7.852,7.852,0,0,0,46.949,319.446Z" transform="translate(-43.354 -305.938)" fill="#ffd9c0"/>
          <path id="Caminho_15945" data-name="Caminho 15945" d="M50.069,318.852c3.6-.9,6.587-5.8,8.286-9.243l-1.826-.438a26.215,26.215,0,0,1-2.2,3.386c-1.8,2.518-5.17,5.414-7.178,4.7a7.851,7.851,0,0,1-3.084-2.382c-.148.171-.267.314-.351.416C43.041,316.116,44.416,320.269,50.069,318.852Z" transform="translate(-43.561 -303.744)" fill="#f7c5a9"/>
        </g>
        <g id="Grupo_2992" data-name="Grupo 2992" transform="translate(7.034 21.539)">
          <path id="Caminho_15946" data-name="Caminho 15946" d="M46.446,311.984c1.049-.782,4.078-3.529,5.924-5.221-1.573-2.031-4.074-4.591-5.924-3.294-2.241,1.571-5.15,1.261-7.437,1.941a4.324,4.324,0,0,0-2.971,2.748,11.487,11.487,0,0,0-1.081,4.8,34.47,34.47,0,0,0,5.011,1.489C41.975,314.748,44.895,313.139,46.446,311.984Z" transform="translate(-34.93 -303.117)" fill="#ffd9c0"/>
          <path id="Caminho_15947" data-name="Caminho 15947" d="M41.8,313.624c1.058-.213,5.439-1.3,7.411-2.884s4.648-3.307,4.648-3.307a25.615,25.615,0,0,0-1.5-2.144c-1.847,1.692-4.875,4.439-5.924,5.221-1.551,1.155-4.47,2.765-6.478,2.461a34.467,34.467,0,0,1-5.011-1.489c.01.069.008.151.024.215C35.3,313.078,40.083,313.971,41.8,313.624Z" transform="translate(-34.919 -301.643)" fill="#f7c5a9"/>
        </g>
        <path id="Caminho_15948" data-name="Caminho 15948" d="M36.227,308.182s7.427-12.624,18.122-16.691c6.2-2.36,11.774-.876,16.973,1.234,3.764,1.526,7.71,2.815,9.747,5.921,4.853,7.393,1.183,16.418-4.848,19.016s-14.277,5.8-18.174,3.592-11.066-8.734-13.577-10.4A14.377,14.377,0,0,0,36.227,308.182Z" transform="translate(-27.016 -290.286)" fill="#ffb01f"/>
        <g id="Grupo_2993" data-name="Grupo 2993" transform="translate(7.762 8.359)">
          <path id="Caminho_15949" data-name="Caminho 15949" d="M46.745,308.088c2.911,2.443,8.236,6.973,12.642,8.54s12.891.7,17.361-2.975,6.941-8.707,6.253-15.583l-1.857-2.8s-.494,8.942-4.851,13.713A14.189,14.189,0,0,1,61.2,312.4c-3.633-1.611-9.923-5.907-12.122-7.3a37.4,37.4,0,0,0-9.476-4.346l-3.485,3.43a21.765,21.765,0,0,0,2.061.745C40.869,305.751,43.834,305.645,46.745,308.088Z" transform="translate(-34.854 -295.266)" fill="#ea9053"/>
          <path id="Caminho_15950" data-name="Caminho 15950" d="M39.218,306.191a10.163,10.163,0,0,1,6.228,2.347c1.648,1.437,6.839,6.043,12.216,8.529,5.263,2.431,11.34,1.9,16.814-.6A20.1,20.1,0,0,0,83.9,306.117c1.2-3.639,0-8.6,0-8.6l-.386-.582c.688,6.876-1.783,11.914-6.253,15.583S64.3,317.06,59.9,315.494s-9.731-6.1-12.642-8.54-5.875-2.337-8.568-3.158a21.773,21.773,0,0,1-2.061-.745l-1.261,1.241A5.227,5.227,0,0,0,39.218,306.191Z" transform="translate(-35.364 -294.133)" fill="#d67b3c"/>
        </g>
      </g>
      <path id="Caminho_15951" data-name="Caminho 15951" d="M37.343,301.734s6.085,2.372,7.035,1.262,5.7-4.955,5.7-4.955l-3.653-2.585-4.128.195A69.506,69.506,0,0,0,37.343,301.734Z" transform="translate(-26.259 -285.641)" fill="#c66a2c"/>
      <path id="Caminho_15952" data-name="Caminho 15952" d="M47.755,307.163s3.93,3.483,7.908,3.893a14.51,14.51,0,0,0,9.555-2.083s-1.487-5.306-2.154-5.907c-1.645-1.482-4.825-4.1-4.825-4.1l-4.558.949Z" transform="translate(-19.192 -283.262)" fill="#c66a2c"/>
      <path id="Caminho_15953" data-name="Caminho 15953" d="M43.561,298.062s4-3.676,5.509-4.705,5.078-.443,5.078-.443a73.858,73.858,0,0,1,7.5,1.892c2.511,1.039,5.488,2.171,5.488,2.171l-3.213,3.972s-4.078,3.661-5.818,3.948c-2.694.446-10.079-3.184-10.079-3.184S43.561,301.775,43.561,298.062Z" transform="translate(-22.039 -287.479)" fill="#ea9053"/>
      <path id="Caminho_15954" data-name="Caminho 15954" d="M41.545,302.245c-.282.818,1.724,1.971,2.414,2.5,1.947,1.5,8.029,4.042,8.029,4.042s6.436-4.786,5.6-6.849c-.559-1.375-2.36-2.8-6.6-4.638-2.313-1-4.742-.927-6.025-.136C43.655,297.969,42.129,300.558,41.545,302.245Z" transform="translate(-23.425 -284.889)" fill="#d67b3c"/>
      <path id="Caminho_15955" data-name="Caminho 15955" d="M53.6,302.115s2.4-2.906,3.1-3.78,3.228-3.292,3.228-3.292a23.458,23.458,0,0,1,5.3,2.919,22.242,22.242,0,0,1,3.284,4.153,12.676,12.676,0,0,1-1.642,4.521c-3.463,4.685-5.61,5-5.61,5a34.4,34.4,0,0,0-3.463-5.785A33.038,33.038,0,0,0,53.6,302.115Z" transform="translate(-15.227 -285.921)" fill="#d67b3c"/>
      <path id="Caminho_15956" data-name="Caminho 15956" d="M40.293,297.934s1.5.307,2.923.687c1.157.309,2.172.779,3.025.265,1.11-.668,2.436-2.468,3.985-3.656a14.3,14.3,0,0,1,3.527-1.927l-6.606-1.21A51.725,51.725,0,0,0,40.293,297.934Z" transform="translate(-24.257 -287.924)" fill="#d67b3c"/>
      <path id="Caminho_15957" data-name="Caminho 15957" d="M48.935,294.681c.483-.259,4.361.41,5.773.908,2.053.722,6.931,2.746,7.989,3.117s3.124-1.516,3.618-2.669,1.573-.517-.092-2.978c-.614-.912-3.221-1.8-4.583-2.258a12.364,12.364,0,0,0-6.931-.206C51.666,291.468,48.935,294.681,48.935,294.681Z" transform="translate(-18.391 -289.21)" fill="#d67b3c"/>
      <path id="Caminho_15958" data-name="Caminho 15958" d="M44.376,293.777s5.934,2.713,7.653,1.3a25.051,25.051,0,0,1,3.691-2.854,21.11,21.11,0,0,1,3.606-1.548s-1.237-1.2-4.3-1.058A20.624,20.624,0,0,0,44.376,293.777Z" transform="translate(-21.485 -289.609)" fill="#c66a2c"/>
      <path id="Caminho_15959" data-name="Caminho 15959" d="M61.112,292.322l-3.979,4.944a17.875,17.875,0,0,1,5.058,2.768,40.69,40.69,0,0,1,3.861,4.23s1.1-4.532.776-6.354c-.353-1.983-.824-2.815-2.884-4.264S61.112,292.322,61.112,292.322Z" transform="translate(-12.827 -287.769)" fill="#c66a2c"/>
      <path id="Caminho_15960" data-name="Caminho 15960" d="M38.562,307.446c-1.16.426-1.088,1.894-1.088,1.894a2.443,2.443,0,0,0,2.137-.2C40.414,308.453,40.041,306.9,38.562,307.446Z" transform="translate(-26.17 -277.58)" fill="#f7c5a9"/>
      <path id="Caminho_15961" data-name="Caminho 15961" d="M38.806,307.6c-.94.159-1.12,1.306-1.12,1.306s1.106.237,1.553-.349C39.474,308.249,39.6,307.463,38.806,307.6Z" transform="translate(-26.026 -277.41)" fill="#c17200"/>
      <path id="Caminho_15962" data-name="Caminho 15962" d="M44.618,297.837c-.577.317-.618.705-1.3,1.526s1.177,1.214,3.461,2.454,4.262,1.889,5.462.332-.306-2.614-2.082-3.606C47.215,296.9,45.727,297.228,44.618,297.837Z" transform="translate(-22.303 -284.362)" fill="#ea9053"/>
      <path id="Caminho_15963" data-name="Caminho 15963" d="M58.093,296.849s-2.531,3.312-2.943,4,.821,1.135,1.779,2.11,2.463.818,4.036-1.293,1.984-3.478.754-4.5S59.323,295.644,58.093,296.849Z" transform="translate(-14.228 -285.174)" fill="#ea9053"/>
      <path id="Caminho_15964" data-name="Caminho 15964" d="M56.541,294.746c-1.168-.448-4.945-1.554-6.518-1.368a4.879,4.879,0,0,0-2.785,1.778c-1.019,1.3,2.872,2.474,4.925,3.29s4.789,1.58,6.3,0S59.141,295.739,56.541,294.746Z" transform="translate(-19.657 -287.066)" fill="#ea9053"/>
      <path id="Caminho_15965" data-name="Caminho 15965" d="M45.108,293.26a6.172,6.172,0,0,0-2.1,1.8c-.959,1.3-.356,1.536.608,1.863s2.265-1.175,3.292-2.238c.5-.515,1.459-1.016.079-1.657A1.954,1.954,0,0,0,45.108,293.26Z" transform="translate(-22.745 -287.383)" fill="#ea9053"/>
      <path id="Caminho_15966" data-name="Caminho 15966" d="M57.909,291.3a20.478,20.478,0,0,0-4.106-.616,3.985,3.985,0,0,0-1.914,1.142c-.89.774,1.711.947,3.557,1.613s3.284,2.2,4.927.713S59.55,291.842,57.909,291.3Z" transform="translate(-16.509 -288.883)" fill="#ea9053"/>
    </g>
  </g>
</svg>
