<svg xmlns="http://www.w3.org/2000/svg" width="30" height="30" viewBox="0 0 47 44.974">
  <g id="Camada_2" data-name="Camada 2" transform="translate(0 0)">
    <g id="Camada_1" data-name="Camada 1" transform="translate(0 0.001)">
      <path id="Caminho_18476" data-name="Caminho 18476" d="M0,21.94c.3-1.3,1.364-1.976,2.236-2.818.6-.578,1.142-1.214,1.734-1.8.706-.7,1.452-1.354,2.154-2.056,1.412-1.414,2.8-2.85,4.207-4.269.635-.643,1.3-1.253,1.933-1.892C13.641,7.722,15,6.325,16.379,4.941c1.1-1.1,2.192-2.21,3.313-3.289a5.375,5.375,0,0,1,6.47-.99A8.413,8.413,0,0,1,28.034,2.23c.759.728,1.469,1.509,2.2,2.263q1.285,1.319,2.589,2.629c1.236,1.243,2.479,2.479,3.721,3.72q2.468,2.461,4.918,4.925c.99,1,1.969,2,2.958,3,.7.707,1.427,1.388,2.1,2.122a3.932,3.932,0,0,1,.481.957v.275a1.8,1.8,0,0,0-.132.316,1.689,1.689,0,0,1-1.3,1.276,1.548,1.548,0,0,1-1.646-.5c-.441-.5-.963-.934-1.5-1.446-.018.184-.042.308-.042.435,0,2.035.008,4.07-.006,6.1a1.872,1.872,0,0,1-.987,1.769,1.635,1.635,0,0,1-1.695-.029,2.023,2.023,0,0,1-.918-1.815q0-4.843.007-9.685a1.037,1.037,0,0,0-.319-.813q-1.469-1.44-2.908-2.9c-1.219-1.238-2.43-2.49-3.655-3.726-.522-.526-1.08-1.015-1.6-1.542-.475-.479-.912-1-1.385-1.477-.712-.722-1.447-1.425-2.164-2.143-.568-.57-1.114-1.162-1.691-1.723a1.97,1.97,0,0,0-2.993.083c-1.13,1.222-2.363,2.344-3.54,3.52-1.785,1.784-3.553,3.58-5.341,5.365-1.527,1.52-3.081,3.015-4.6,4.543a1.248,1.248,0,0,0-.339.789q-.028,9.685,0,19.369A3.616,3.616,0,0,0,11.8,41.4c2.508.057,5.018.02,7.527.021,5.141,0,10.281-.008,15.422.006a3.925,3.925,0,0,0,3.13-1.293,3.566,3.566,0,0,0,.9-2.233,2.132,2.132,0,0,1,.6-1.508,1.8,1.8,0,0,1,2.871.7,4.431,4.431,0,0,1-.124,2.368A7.106,7.106,0,0,1,37.5,44.528a8.45,8.45,0,0,1-2.769.424c-7.481.033-14.963.018-22.443.018a7.612,7.612,0,0,1-4.471-1.285A7.432,7.432,0,0,1,4.748,38.88a8.856,8.856,0,0,1-.112-1.774q-.012-7.368,0-14.735v-.522L4.523,21.8c-.2.214-.4.441-.615.643a13.162,13.162,0,0,1-1.2,1.043A1.739,1.739,0,0,1,.092,22.215.575.575,0,0,0,0,22.032Z" transform="translate(0 -0.001)" fill="#fff"/>
    </g>
  </g>
</svg>
