<svg id="Camada_1" data-name="Camada 1" xmlns="http://www.w3.org/2000/svg" width="26.084" height="19.147" viewBox="0 0 26.084 19.147">
  <path id="Caminho_18492" data-name="Caminho 18492" d="M26.084,9.985c-.089.264-.111.551-.363.748a.956.956,0,0,1-1.033.169.885.885,0,0,1-.6-.808c-.024-.948-.023-1.9-.033-2.846V6.935H2.042c-.005.085-.014.167-.014.248,0,2.631,0,5.263,0,7.9A2.017,2.017,0,0,0,3.64,17.1a1.874,1.874,0,0,0,.454.033q8.951,0,17.9.008a2.059,2.059,0,0,0,2.063-1.964.988.988,0,0,1,1.174-1.057,1,1,0,0,1,.8.717.5.5,0,0,0,.056.094v.255c-.019.1-.045.194-.055.292a3.9,3.9,0,0,1-1.113,2.42,4.162,4.162,0,0,1-3.124,1.25q-8.758,0-17.515,0a4.845,4.845,0,0,1-.859-.069A3.927,3.927,0,0,1,.961,17.649a3.84,3.84,0,0,1-.914-2.328A.917.917,0,0,0,0,15.131V3.77c.017-.026.048-.051.051-.078a3.867,3.867,0,0,1,.654-1.85A3.912,3.912,0,0,1,3.21.133c.255-.055.509-.09.764-.133H22.111c.082.016.164.03.246.047a6.156,6.156,0,0,1,1.115.246,3.967,3.967,0,0,1,2.4,2.6c.1.349.143.717.212,1.077ZM2.038,4.908H24.055v-.96a1.859,1.859,0,0,0-.531-1.269,2.005,2.005,0,0,0-1.579-.656q-8.9.011-17.8,0a2.539,2.539,0,0,0-.306.005,2.077,2.077,0,0,0-1.361.739A2.865,2.865,0,0,0,2.038,4.908Z" fill="#435dac"/>
  <path id="Caminho_18493" data-name="Caminho 18493" d="M86.388,176.592h4.535a1.074,1.074,0,0,1,.245,2.107,1.221,1.221,0,0,1-.4.047q-4.411,0-8.822,0a1.081,1.081,0,1,1-.144-2.156q2.3,0,4.59,0Z" transform="translate(-76.863 -167.677)" fill="#435dac"/>
  <path id="Caminho_18494" data-name="Caminho 18494" d="M348.848,232.63h1.265a.98.98,0,0,1,1,.828,9.705,9.705,0,0,1,0,1.824,1.039,1.039,0,0,1-1.05.82c-.825.012-1.647.015-2.47,0a1.049,1.049,0,0,1-1.091-1.027,11.045,11.045,0,0,1,.015-1.527,1.026,1.026,0,0,1,1.1-.914c.412.008.825,0,1.235,0Z" transform="translate(-329.112 -220.969)" fill="#435dac"/>
</svg>
