<svg xmlns="http://www.w3.org/2000/svg" width="27.61" height="27.61" viewBox="0 0 31.352 30">
  <g id="Camada_2" data-name="Camada 2" transform="translate(0 -0.001)">
    <g id="Camada_1" data-name="Camada 1" transform="translate(0 0.001)">
      <path id="Caminho_18476" data-name="Caminho 18476" d="M0,14.635c.2-.864.91-1.318,1.492-1.88.4-.386.762-.81,1.157-1.2.471-.465.969-.9,1.437-1.372.942-.943,1.868-1.9,2.806-2.848.424-.429.865-.836,1.29-1.262C9.1,5.151,10.008,4.22,10.926,3.3c.732-.735,1.462-1.474,2.21-2.194a3.586,3.586,0,0,1,4.316-.66A5.612,5.612,0,0,1,18.7,1.488c.506.486.98,1.007,1.47,1.509q.857.88,1.727,1.754c.825.829,1.653,1.653,2.482,2.481q1.646,1.642,3.281,3.285c.66.664,1.313,1.336,1.973,2,.467.472.952.926,1.4,1.416a2.623,2.623,0,0,1,.321.639v.184a1.2,1.2,0,0,0-.088.211,1.127,1.127,0,0,1-.869.851,1.032,1.032,0,0,1-1.1-.331c-.294-.335-.642-.623-1-.964-.012.122-.028.206-.028.29,0,1.358.006,2.715,0,4.072a1.249,1.249,0,0,1-.658,1.18,1.091,1.091,0,0,1-1.13-.02,1.349,1.349,0,0,1-.612-1.211q0-3.23,0-6.461a.692.692,0,0,0-.213-.543q-.98-.961-1.94-1.937c-.813-.826-1.621-1.661-2.438-2.485-.348-.351-.721-.677-1.069-1.029-.317-.32-.608-.664-.924-.985-.475-.482-.965-.95-1.443-1.429-.379-.38-.743-.775-1.128-1.149a1.314,1.314,0,0,0-2,.055c-.754.815-1.576,1.563-2.361,2.348-1.19,1.19-2.37,2.388-3.563,3.579C7.773,9.813,6.736,10.81,5.723,11.83a.832.832,0,0,0-.226.527q-.018,6.461,0,12.92a2.412,2.412,0,0,0,2.375,2.342c1.673.038,3.347.013,5.021.014,3.429,0,6.858-.006,10.287,0a2.618,2.618,0,0,0,2.088-.863,2.379,2.379,0,0,0,.6-1.49,1.422,1.422,0,0,1,.4-1.006,1.2,1.2,0,0,1,1.915.468,2.956,2.956,0,0,1-.083,1.58A4.74,4.74,0,0,1,25.017,29.7a5.637,5.637,0,0,1-1.847.283C18.18,30.008,13.189,30,8.2,30a5.078,5.078,0,0,1-2.982-.857,4.957,4.957,0,0,1-2.05-3.206,5.908,5.908,0,0,1-.075-1.184q-.008-4.915,0-9.829v-.348l-.075-.031c-.136.143-.265.294-.41.429a8.78,8.78,0,0,1-.8.7,1.16,1.16,0,0,1-1.746-.849A.383.383,0,0,0,0,14.7Z" transform="translate(0 -0.001)" fill="currentColor"/>
      <path id="Caminho_18477" data-name="Caminho 18477" d="M165.573,207.779c.367.222.753.438,1.119.683a4.915,4.915,0,0,1,1.53,1.431,1.082,1.082,0,0,1-.038,1.2,1.123,1.123,0,0,1-1.252.56,1.623,1.623,0,0,1-.689-.384,5.831,5.831,0,0,0-5.8-1.595,5.731,5.731,0,0,0-2.673,1.6,1.165,1.165,0,0,1-1.679.039,1.216,1.216,0,0,1-.074-1.774,8.293,8.293,0,0,1,2.26-1.664c.152-.079.228-.17.085-.347a4.162,4.162,0,0,1-.91-2.964,4.387,4.387,0,0,1,1.365-2.983,4.528,4.528,0,0,1,3.493-1.3,4.559,4.559,0,0,1,4.119,3.453,4.183,4.183,0,0,1-.234,2.854C166.006,206.988,165.783,207.379,165.573,207.779Zm-1.472-2.948a2.07,2.07,0,0,0-2.062-2.093,2.091,2.091,0,0,0-.07,4.181,2.058,2.058,0,0,0,2.13-2.087Z" transform="translate(-146.412 -188.322)" fill="currentColor"/>
    </g>
  </g>
</svg>
