<svg xmlns="http://www.w3.org/2000/svg" width="30" height="30" viewBox="0 0 49.001 49">
  <g id="Camada_2" data-name="Camada 2" transform="translate(-0.021 0.032)">
    <g id="Camada_1" data-name="Camada 1" transform="translate(0.021 -0.032)">
      <path id="Caminho_18484" data-name="Caminho 18484" d="M23.165,48.96c-.433-.078-.864-.185-1.3-.23a23.547,23.547,0,0,1-7.676-2.154,21.483,21.483,0,0,1-4.778-2.952C8.6,42.937,7.78,42.257,7.033,41.5A18.89,18.89,0,0,1,5.2,39.319c-.755-1.043-1.485-2.111-2.136-3.221a17.481,17.481,0,0,1-2.052-5,43.478,43.478,0,0,1-.872-4.55A19.466,19.466,0,0,1,.357,20.8c.225-1.225.48-2.453.815-3.646a20.176,20.176,0,0,1,1.815-4.3A21.206,21.206,0,0,1,5.481,9.142C6.16,8.364,6.909,7.648,7.6,6.88a17.558,17.558,0,0,1,3.916-3.148,36.223,36.223,0,0,1,3.846-1.938A20.838,20.838,0,0,1,21.388.18a22.364,22.364,0,0,1,5.351-.1,27.455,27.455,0,0,1,5.547,1.14,22.7,22.7,0,0,1,3.855,1.742,27.772,27.772,0,0,1,3.32,2.148,14.631,14.631,0,0,1,2.523,2.252,1.96,1.96,0,0,1-.992,3.122A2.189,2.189,0,0,1,38.8,9.75a27.2,27.2,0,0,0-3.127-2.456,24.256,24.256,0,0,0-3.454-1.87,14.654,14.654,0,0,0-2.958-.93,23.429,23.429,0,0,0-3.894-.557,16.917,16.917,0,0,0-5.61.584,38.475,38.475,0,0,0-3.9,1.335A16.975,16.975,0,0,0,11.921,8.27a17.662,17.662,0,0,0-1.649,1.4A19.278,19.278,0,0,0,7.15,13.561,24.467,24.467,0,0,0,5.64,16.44a21.853,21.853,0,0,0-1.065,3.4,22.605,22.605,0,0,0-.565,3.734,20.951,20.951,0,0,0,.177,3.55,15.168,15.168,0,0,0,.605,2.959A26.056,26.056,0,0,0,6.337,33.9a22.19,22.19,0,0,0,2.142,3.324A18.623,18.623,0,0,0,11.8,40.494a23.146,23.146,0,0,0,3.358,2.178,15.393,15.393,0,0,0,4.489,1.649,29.819,29.819,0,0,0,3.969.6,16,16,0,0,0,5.278-.488c1.32-.384,2.653-.751,3.934-1.243a16.606,16.606,0,0,0,2.469-1.319,15.513,15.513,0,0,0,3.365-2.621c.855-.9,1.678-1.841,2.446-2.819a17.2,17.2,0,0,0,2.382-4.223,17.4,17.4,0,0,0,1.264-4.629c.12-1.124.186-2.253.3-3.379a1.946,1.946,0,0,1,2.635-1.586,1.858,1.858,0,0,1,1.223,1.4c.009.052.077.1.118.139v1.631a.96.96,0,0,0-.136.262c-.231,1.423-.367,2.869-.707,4.264a29.329,29.329,0,0,1-1.343,4,17.16,17.16,0,0,1-2.529,4.4,36.465,36.465,0,0,1-3.257,3.707A20.656,20.656,0,0,1,36.4,45.775a21.45,21.45,0,0,1-3.818,1.715c-.685.192-1.356.452-2.051.6-1.12.246-2.253.43-3.381.638-.436.081-.873.158-1.31.236Z" transform="translate(-0.021 0.032)" fill="#43ac5f"/>
      <path id="Caminho_18485" data-name="Caminho 18485" d="M177.908,190.66c.772-.8,1.5-1.558,2.236-2.3,1.142-1.159,2.3-2.3,3.439-3.465,1.082-1.095,2.118-2.239,3.248-3.282a1.964,1.964,0,0,1,3.095.949,2,2,0,0,1-.665,2.158q-4.682,4.663-9.352,9.338c-.248.248-.5.49-.757.728a1.919,1.919,0,0,1-2.717-.063q-2.527-2.553-5.073-5.086a1.938,1.938,0,0,1-.342-2.347,1.908,1.908,0,0,1,2.461-.831,6.988,6.988,0,0,1,1.9,1.67C176.215,188.907,177,189.745,177.908,190.66Z" transform="translate(-154.379 -163.785)" fill="#43ac5f"/>
    </g>
  </g>
</svg>
