<svg width="25" height="25" viewBox="0 0 25 25" fill="none" xmlns="http://www.w3.org/2000/svg">
<path d="M7.02722 2.43091H17.9802C18.4439 2.43078 18.9029 2.52194 19.3313 2.69928C19.7597 2.87662 20.149 3.13661 20.4769 3.46442C20.8048 3.79222 21.065 4.18146 21.2424 4.6098C21.4199 5.03815 21.5112 5.49723 21.5112 5.96088V21.8679L18.7672 19.1229C18.1003 18.4571 17.1965 18.0831 16.2542 18.0829H7.02612C6.08964 18.0829 5.19161 17.7109 4.52942 17.0487C3.86723 16.3865 3.49512 15.4884 3.49512 14.5519V5.96088C3.49512 5.49714 3.58651 5.03797 3.76404 4.60956C3.94156 4.18115 4.20178 3.79193 4.52979 3.46411C4.85779 3.13629 5.24715 2.87632 5.67566 2.69904C6.10417 2.52175 6.56349 2.43065 7.02722 2.43091V2.43091Z" stroke="currentColor" stroke-width="2" stroke-miterlimit="10" stroke-linecap="round"/>
<path d="M15.9221 6.47485H10.5321C10.0422 6.47485 9.57245 6.66943 9.22607 7.01581C8.87969 7.36219 8.68506 7.83198 8.68506 8.32184V8.32184C8.68506 8.81179 8.87972 9.2817 9.22607 9.62823C9.57243 9.97477 10.0422 10.1696 10.5321 10.1699H14.0751C14.5649 10.1699 15.0347 10.3644 15.3811 10.7108C15.7275 11.0572 15.9221 11.527 15.9221 12.0168V12.0168C15.9221 12.5067 15.7275 12.9765 15.3811 13.3229C15.0347 13.6693 14.5649 13.8638 14.0751 13.8638H8.68506" stroke="currentColor" stroke-width="2" stroke-miterlimit="10" stroke-linecap="round"/>
<path d="M12.2903 15.3659V4.75793" stroke="currentColor" stroke-width="2" stroke-miterlimit="10" stroke-linecap="round"/>
</svg>
