<svg xmlns="http://www.w3.org/2000/svg" width="24.61" height="27.61" viewBox="0 0 24.409 24.408">
  <g id="Camada_2" data-name="Camada 2" transform="translate(0.02)">
    <g id="Camada_1" data-name="Camada 1" transform="translate(-0.02)">
      <path id="Caminho_18481" data-name="Caminho 18481" d="M12.519,0c.3.048.6.087.906.136a6.69,6.69,0,0,1,2.8,1.16,7.025,7.025,0,0,1,2.854,7.165,6.8,6.8,0,0,1-1.7,3.337,6.913,6.913,0,0,1-3.7,2.126,12.536,12.536,0,0,1-2.313.191,15.9,15.9,0,0,0-4.078.646A12.054,12.054,0,0,0,4.093,16.21a5.216,5.216,0,0,0-1.537,1.382,3.5,3.5,0,0,0-.668,1.988q-.006,1,0,2a.9.9,0,0,0,.931.922h18.73a.9.9,0,0,0,.941-.936c0-.644.011-1.287,0-1.93a3.645,3.645,0,0,0-1.243-2.689,8.5,8.5,0,0,0-2.3-1.47.98.98,0,0,1-.7-1.1.915.915,0,0,1,1.188-.723,10.572,10.572,0,0,1,2.777,1.66,5.772,5.772,0,0,1,1.642,2.075,5.39,5.39,0,0,1,.5,1.984.473.473,0,0,0,.038.123v2.241a.325.325,0,0,0-.035.081,2.774,2.774,0,0,1-1.916,2.4,7.422,7.422,0,0,1-.719.186H2.651a7.642,7.642,0,0,1-.763-.2,2.789,2.789,0,0,1-1.7-1.658,6.134,6.134,0,0,1-.209-.815V19.593a1.442,1.442,0,0,0,.043-.226,5,5,0,0,1,.512-2,6.464,6.464,0,0,1,2.271-2.541,13.6,13.6,0,0,1,3.982-1.864c.358-.1.718-.2,1.015-.286-.29-.32-.588-.644-.881-.972A6.722,6.722,0,0,1,5.3,8.461,7.008,7.008,0,0,1,7.661,1.674,6.769,6.769,0,0,1,10.712.185C11.088.111,11.47.061,11.851,0Zm-.353,12.209A5.172,5.172,0,0,0,17.35,7.093,5.165,5.165,0,0,0,7.02,7.01,5.168,5.168,0,0,0,12.165,12.209Z" transform="translate(0.02)" fill="currentColor"/>
    </g>
  </g>
</svg>
