<svg xmlns="http://www.w3.org/2000/svg" width="24.854" height="30" viewBox="0 0 24.854 30">
  <g id="Camada_2" data-name="Camada 2" transform="translate(-0.001 0.07)">
    <g id="Camada_1" data-name="Camada 1" transform="translate(0.001 -0.07)">
      <path id="Caminho_18471" data-name="Caminho 18471" d="M21.626,29.93H3.23a2.091,2.091,0,0,0-.285-.052A3.192,3.192,0,0,1,.014,26.9C-.007,25.841,0,24.786,0,23.732a1.912,1.912,0,0,1,.022-.2H4.7V.223C4.7.126,4.7.029,4.7-.07h.059C4.882.021,5,.123,5.138.2q1.674.974,3.358,1.93a.363.363,0,0,0,.3,0q1.331-.741,2.648-1.507a.409.409,0,0,1,.477-.045c.715.428,1.453.82,2.152,1.271.469.3.9.455,1.36.029a.66.66,0,0,1,.12-.078c.714-.41,1.425-.82,2.143-1.223a.385.385,0,0,1,.287-.035,3.711,3.711,0,0,1,.482.269c.755.438,1.506.882,2.267,1.308a.447.447,0,0,0,.375.026c.82-.461,1.625-.944,2.437-1.417.422-.245.849-.482,1.309-.742V26.395c0,.176,0,.352-.008.527a3.185,3.185,0,0,1-1.984,2.718A11.951,11.951,0,0,1,21.626,29.93ZM20.14,23.539v.392c0,.966-.013,1.933.022,2.9a1.477,1.477,0,0,0,2.12,1.217,1.592,1.592,0,0,0,.875-1.605q-.005-11.568,0-23.137c0-.1-.009-.205-.016-.346-.107.053-.176.083-.238.117-.6.343-1.191.692-1.8,1.024a.39.39,0,0,1-.325.005c-.934-.514-1.859-1.047-2.789-1.564a.36.36,0,0,0-.3,0c-.93.523-1.851,1.06-2.781,1.582a.369.369,0,0,1-.284-.008,4.612,4.612,0,0,1-.451-.258c-.762-.441-1.523-.886-2.291-1.313a.434.434,0,0,0-.358.018c-.929.522-1.85,1.061-2.776,1.588a.252.252,0,0,1-.21,0c-.3-.168-.6-.352-.9-.527-.383-.222-.767-.439-1.176-.673V23.539Zm-1.743,1.7H2.1a1.587,1.587,0,0,1-.176,0c-.185-.02-.234.071-.23.242q.014.57,0,1.141A1.557,1.557,0,0,0,3.294,28.19c5.065-.021,10.129-.009,15.194-.011.09,0,.18-.01.309-.018A6.256,6.256,0,0,1,18.4,25.243Z" transform="translate(-0.001 0.07)" fill="#435dac"/>
      <path id="Caminho_18472" data-name="Caminho 18472" d="M140.7,137.958h13.072V136.3H140.7Zm0,1.678v1.673h13.065v-1.673Zm6.51,3.351H140.7v1.707h6.511Z" transform="translate(-132.457 -128.311)" fill="#435dac"/>
      <path id="Caminho_18473" data-name="Caminho 18473" d="M140.7,137.958V136.3h13.072v1.658Z" transform="translate(-132.457 -128.311)" fill="#435dac"/>
      <path id="Caminho_18474" data-name="Caminho 18474" d="M140.75,193.25h13.065v1.673H140.75Z" transform="translate(-132.504 -181.924)" fill="#435dac"/>
      <path id="Caminho_18475" data-name="Caminho 18475" d="M147.251,250.44v1.707H140.74V250.44Z" transform="translate(-132.495 -235.764)" fill="#435dac"/>
    </g>
  </g>
</svg>
