<svg xmlns="http://www.w3.org/2000/svg" width="27.61" height="27.61" viewBox="0 0 30.232 30.233">
  <g id="Camada_2" data-name="Camada 2" transform="translate(-3 -3)">
    <g id="Camada_1" data-name="Camada 1" transform="translate(3 3)">
      <path id="Caminho_18478" data-name="Caminho 18478" d="M309.76,84.791c0-.068-.006-.138-.014-.205a.471.471,0,0,0-.031-.113,6.167,6.167,0,0,0-2.27-2.876,6.525,6.525,0,0,0-3.646-1.181,1.2,1.2,0,0,0-1.213.971,1.108,1.108,0,0,0,.993,1.313,5.435,5.435,0,0,1,1.983.45,4.337,4.337,0,0,1,2.008,2.136,1.158,1.158,0,0,0,2.189-.494Z" transform="translate(-284.712 -75.667)" fill="currentColor"/>
      <path id="Caminho_18479" data-name="Caminho 18479" d="M30.232,11.455c-.036.365-.067.73-.109,1.095a10.409,10.409,0,0,1-.934,3.311c-.168.354-.35.7-.531,1.042a1.1,1.1,0,0,1-1.086.606,1.068,1.068,0,0,1-1.011-.768,1.1,1.1,0,0,1,.067-.935,8.835,8.835,0,0,0,1.233-5.373,8.58,8.58,0,0,0-1.135-3.6A9.012,9.012,0,0,0,23.22,3.384a7.982,7.982,0,0,0-2.79-.937,8.978,8.978,0,0,0-3.783.21,8.834,8.834,0,0,0-5.62,4.672,8.507,8.507,0,0,0-.873,4.411,8.942,8.942,0,0,0,5.08,7.521,8.878,8.878,0,0,0,4.429.815,8.671,8.671,0,0,0,3.13-.811,1.094,1.094,0,0,1,1.28.164,1.142,1.142,0,0,1-.128,1.82,10.439,10.439,0,0,1-3.606,1.085,10.713,10.713,0,0,1-4.711-.455,17.558,17.558,0,0,1-2.185-.975c-.236-.118-.366-.09-.512.1L9.6,25.272a34.035,34.035,0,0,1-3.412,3.714,3.669,3.669,0,0,1-.827.693,11.582,11.582,0,0,1-1.45.5c-.043.015-.084.034-.127.051h-.3a1.168,1.168,0,0,0-.191-.047A3.353,3.353,0,0,1,.44,28.327,7.414,7.414,0,0,1,0,26.867V26.63c.048-.286.078-.576.148-.856A4.194,4.194,0,0,1,1.383,23.89a41.857,41.857,0,0,1,4.27-3.8c1.222-.945,2.416-1.926,3.63-2.882.133-.105.167-.177.086-.335-.246-.472-.494-.95-.709-1.44A10.6,10.6,0,0,1,8,9.217a10.848,10.848,0,0,1,2.982-5.775A11.148,11.148,0,0,1,17.216.171C17.6.106,17.981.059,18.364,0h1.3a1.152,1.152,0,0,0,.217.059,10.559,10.559,0,0,1,2.913.62A11.213,11.213,0,0,1,27.87,4.4a11.012,11.012,0,0,1,2.181,4.989c.074.451.121.905.181,1.358ZM10.878,18.892c-.775.606-1.541,1.192-2.295,1.8-.945.753-1.862,1.535-2.812,2.277a32.44,32.44,0,0,0-3.038,2.812,1.214,1.214,0,1,0,1.653,1.779,29.309,29.309,0,0,0,3.047-3.288c.788-1.013,1.594-2.012,2.387-3.019.5-.628.987-1.26,1.484-1.9Z" fill="currentColor"/>
      <path id="Caminho_18480" data-name="Caminho 18480" d="M309.766,84.754a1.158,1.158,0,0,1-2.189.492,4.352,4.352,0,0,0-2.008-2.136,5.435,5.435,0,0,0-1.983-.45,1.106,1.106,0,0,1-.993-1.313,1.2,1.2,0,0,1,1.213-.971,6.525,6.525,0,0,1,3.646,1.181,6.167,6.167,0,0,1,2.27,2.876.472.472,0,0,1,.031.113C309.76,84.616,309.762,84.685,309.766,84.754Z" transform="translate(-284.718 -75.629)" fill="currentColor"/>
    </g>
  </g>
</svg>
