<svg id="Camada_2" data-name="Camada 2" xmlns="http://www.w3.org/2000/svg" width="33.261" height="30.188" viewBox="0 0 33.261 33.188">
  <g id="Camada_1" data-name="Camada 1" transform="translate(0 0)">
    <path id="Caminho_18460" data-name="Caminho 18460" d="M65.288,31.208a.935.935,0,0,0-.928-.958.993.993,0,0,0-.942.959.953.953,0,0,0,.944.945A.912.912,0,0,0,65.288,31.208Zm17.54.008a.938.938,0,0,0-.921-.966.994.994,0,0,0-.949.951.954.954,0,0,0,.935.956.913.913,0,0,0,.935-.943ZM69.186,33.172a.939.939,0,0,0-.909-.974,1,1,0,0,0-.958.943.954.954,0,0,0,.927.963.913.913,0,0,0,.941-.935Zm9.744,1.94a.938.938,0,0,0-.921-.965.993.993,0,0,0-.948.952.954.954,0,0,0,.935.954.913.913,0,0,0,.934-.945ZM63.34,40.959A.937.937,0,0,0,62.416,40a1,1,0,0,0-.946.954.954.954,0,0,0,.938.952.913.913,0,0,0,.932-.95Zm23.451,0A.935.935,0,0,0,85.863,40a.992.992,0,0,0-.941.959.953.953,0,0,0,.944.943.912.912,0,0,0,.926-.946Z" transform="translate(-57.477 -28.284)" fill="currentColor"/>
    <path id="Caminho_18461" data-name="Caminho 18461" d="M0,134.978c.292-.52.553-1.061.883-1.559q1.613-2.409,3.275-4.786a1.224,1.224,0,0,1,.578-.419c2.236-.763,4.478-1.507,6.719-2.256l.136-.047a3.863,3.863,0,0,0-.721-1.57,5.092,5.092,0,0,0-2.684-1.9.934.934,0,1,1,.546-1.786,6.551,6.551,0,0,1,4.223,3.525c.174.355.321.725.493,1.116.665-.221,1.36-.442,2.046-.691.084-.031.161-.209.162-.32.013-.909,0-1.819.008-2.728,0-.615.195-.935.65-1.11a.9.9,0,0,1,1.221.7c.065.7.047,1.4.06,2.1.006.357-.018.715.012,1.071a.442.442,0,0,0,.227.316c.65.234,1.315.439,1.959.65.248-.528.45-1.065.737-1.552a6.57,6.57,0,0,1,4.017-3.09.924.924,0,0,1,1.184.613.907.907,0,0,1-.678,1.189A4.989,4.989,0,0,0,21.9,125.2a5.141,5.141,0,0,0-.188.52,1.838,1.838,0,0,0-.037.195c.712.227,1.411.454,2.105.682l4.914,1.63c.469.155.631.6.871.954q1.689,2.5,3.336,5.022a4.991,4.991,0,0,1,.363.839v.065a1.2,1.2,0,0,1-.827.826c-.941.293-1.872.622-2.811.92a.336.336,0,0,0-.272.39c.01,1.169.008,2.339,0,3.508a1.032,1.032,0,0,1-.666,1.1q-2.408.8-4.816,1.606-3.164,1.048-6.33,2.089a2.189,2.189,0,0,1-1.469.119q-5.564-1.884-11.147-3.716a1.167,1.167,0,0,1-.957-1.32c0-1.125-.008-2.251.006-3.378a.349.349,0,0,0-.277-.393c-.9-.292-1.783-.619-2.688-.878A1.279,1.279,0,0,1,0,135.108Zm15.161-1.447c-3.234-1.076-6.383-2.12-9.527-3.177a.357.357,0,0,0-.5.155c-.659.992-1.335,1.973-2,2.96-.225.333-.439.674-.661,1.015,1.4.461,2.771.909,4.135,1.36q2.748.909,5.492,1.829a.282.282,0,0,0,.4-.133c.633-.979,1.284-1.949,1.929-2.917C14.66,134.269,14.9,133.919,15.161,133.531Zm15.624.946c-.069-.121-.115-.215-.172-.3-.812-1.223-1.631-2.44-2.433-3.668a.332.332,0,0,0-.47-.159c-1.306.448-2.618.88-3.93,1.312-1.876.618-3.753,1.234-5.652,1.859.07.119.13.232.2.338.818,1.234,1.642,2.461,2.45,3.7a.26.26,0,0,0,.37.118c.8-.273,1.607-.536,2.411-.8,1.61-.528,3.221-1.052,4.831-1.584C29.171,135.032,29.948,134.761,30.785,134.477ZM7.942,129.131c.125.046.16.06.195.071q4.158,1.391,8.315,2.777a.676.676,0,0,0,.4-.014c2.047-.676,4.093-1.361,6.135-2.041.767-.255,1.536-.5,2.3-.752V129.1l-3.763-1.234c-.027.168-.049.316-.075.463a.924.924,0,0,1-.934.78.909.909,0,0,1-.9-.806c-.038-.287-.026-.581-.055-.87-.009-.09-.058-.23-.123-.254-.591-.214-1.19-.408-1.782-.606-.029.06-.045.079-.045.1,0,.433,0,.866-.008,1.3-.017.788-.492,1.238-1.163,1.112a1,1,0,0,1-.769-1.088c-.008-.463,0-.928,0-1.437-.633.212-1.234.405-1.823.619-.065.024-.125.158-.134.246-.031.311-.012.628-.065.934a.9.9,0,0,1-1.494.515,3.874,3.874,0,0,1-.514-.974Zm9.728,7.157-.055.025v7.2c.144-.038.268-.065.39-.1q4.315-1.429,8.631-2.864c.788-.26.788-.26.788-1.113v-1.837c-.251.081-.455.146-.655.213l-5.908,1.949a.89.89,0,0,1-1.119-.385c-.26-.378-.52-.761-.774-1.144Q18.315,137.258,17.67,136.288Zm-2.026-.032c-.065.084-.1.121-.13.162-.629.95-1.254,1.9-1.884,2.85a.975.975,0,0,1-1.3.46q-3.019-.989-6.029-1.984c-.12-.039-.241-.071-.4-.118,0,.819.008,1.6-.005,2.374,0,.223.072.309.285.379,2.45.809,4.895,1.633,7.341,2.451.7.234,1.4.46,2.115.7Z" transform="translate(0 -112.566)" fill="currentColor"/>
    <path id="Caminho_18462" data-name="Caminho 18462" d="M0,63.078a3.557,3.557,0,0,1,.715-1.594,2.965,2.965,0,0,1,4.119-.374,2.877,2.877,0,0,1,.321,4.139A2.926,2.926,0,0,1,.665,65.1,3.968,3.968,0,0,1,0,63.6Zm3.026-.72a.983.983,0,1,0-.033,1.959.98.98,0,0,0,.033-1.959Z" transform="translate(0 -56.517)" fill="currentColor"/>
    <path id="Caminho_18463" data-name="Caminho 18463" d="M428.13,63.619a8.128,8.128,0,0,1-.58,1.338,2.848,2.848,0,0,1-4.426.325,2.88,2.88,0,0,1,1.589-4.838,2.885,2.885,0,0,1,3.352,2.357.981.981,0,0,0,.065.169Zm-2.893-1.306a.968.968,0,0,0-1.02.958.942.942,0,0,0,.971,1,.981.981,0,0,0,.049-1.962Z" transform="translate(-394.869 -56.473)" fill="currentColor"/>
    <path id="Caminho_18464" data-name="Caminho 18464" d="M214.584,0c.225.057.455.1.673.173a2.883,2.883,0,0,1,2.027,2.888,2.894,2.894,0,1,1-3.2-3.01A.462.462,0,0,0,214.195,0Zm-1.176,2.932c-.095.494.5,1.019,1,.982a.957.957,0,0,0,.966-.986.981.981,0,1,0-1.962,0Z" transform="translate(-197.759 0)" fill="currentColor"/>
    <path id="Caminho_18465" data-name="Caminho 18465" d="M93.34,31.2a.913.913,0,0,1-.928.948.953.953,0,0,1-.942-.948,1,1,0,0,1,.942-.959A.935.935,0,0,1,93.34,31.2Z" transform="translate(-85.528 -28.275)" fill="currentColor"/>
    <path id="Caminho_18466" data-name="Caminho 18466" d="M363.34,31.176a.913.913,0,0,1-.935.941.954.954,0,0,1-.935-.956.993.993,0,0,1,.949-.951A.94.94,0,0,1,363.34,31.176Z" transform="translate(-337.988 -28.247)" fill="currentColor"/>
    <path id="Caminho_18467" data-name="Caminho 18467" d="M153.33,61.181a.913.913,0,0,1-.943.933.954.954,0,0,1-.927-.963,1,1,0,0,1,.958-.943A.938.938,0,0,1,153.33,61.181Z" transform="translate(-141.62 -56.295)" fill="currentColor"/>
    <path id="Caminho_18468" data-name="Caminho 18468" d="M303.34,91.174a.913.913,0,0,1-.934.942.954.954,0,0,1-.935-.954.994.994,0,0,1,.948-.952A.939.939,0,0,1,303.34,91.174Z" transform="translate(-281.886 -84.349)" fill="currentColor"/>
    <path id="Caminho_18469" data-name="Caminho 18469" d="M63.34,181.171a.913.913,0,0,1-.932.944.954.954,0,0,1-.938-.95.992.992,0,0,1,.946-.954A.936.936,0,0,1,63.34,181.171Z" transform="translate(-57.477 -168.503)" fill="currentColor"/>
    <path id="Caminho_18470" data-name="Caminho 18470" d="M424.339,181.2a.911.911,0,0,1-.927.948.953.953,0,0,1-.943-.948.994.994,0,0,1,.941-.959A.935.935,0,0,1,424.339,181.2Z" transform="translate(-395.025 -168.531)" fill="currentColor"/>
  </g>
</svg>
